<?xml version="1.0" encoding="UTF-8" standalone="no" ?>
<svg
  xmlns:dc="http://purl.org/dc/elements/1.1/"
  xmlns:cc="http://creativecommons.org/ns#"
  xmlns:rdf="http://www.w3.org/1999/02/22-rdf-syntax-ns#"
  xmlns:svg="http://www.w3.org/2000/svg"
  xmlns="http://www.w3.org/2000/svg"
  xmlns:sodipodi="http://sodipodi.sourceforge.net/DTD/sodipodi-0.dtd"
  xmlns:inkscape="http://www.inkscape.org/namespaces/inkscape"
  version="1.1"
  x="0px"
  y="0px"
  viewBox="0 0 2408 2158.7"
  style="enable-background:new 0 0 2408 2158.7;"
  xml:space="preserve"
  id="svg4837"
  sodipodi:docname="action.svg"
  inkscape:version="0.92.2 (5c3e80d, 2017-08-06)"
><metadata id="metadata4843"><rdf:RDF><cc:Work rdf:about=""><dc:format
        >image/svg+xml</dc:format><dc:type
          rdf:resource="http://purl.org/dc/dcmitype/StillImage"
        /><dc:title /><cc:license
          rdf:resource="http://creativecommons.org/publicdomain/zero/1.0/"
        /><dc:source
        >https://commons.wikimedia.org/wiki/File:Clapper_mark.svg</dc:source></cc:Work><cc:License
        rdf:about="http://creativecommons.org/publicdomain/zero/1.0/"
      ><cc:permits
          rdf:resource="http://creativecommons.org/ns#Reproduction"
        /><cc:permits
          rdf:resource="http://creativecommons.org/ns#Distribution"
        /><cc:permits
          rdf:resource="http://creativecommons.org/ns#DerivativeWorks"
        /></cc:License></rdf:RDF></metadata><defs
    id="defs4841"
  /><sodipodi:namedview
    pagecolor="#ffffff"
    bordercolor="#666666"
    borderopacity="1"
    objecttolerance="10"
    gridtolerance="10"
    guidetolerance="10"
    inkscape:pageopacity="0"
    inkscape:pageshadow="2"
    inkscape:window-width="1366"
    inkscape:window-height="668"
    id="namedview4839"
    showgrid="false"
    inkscape:zoom="0.23810627"
    inkscape:cx="487.93318"
    inkscape:cy="1415.3344"
    inkscape:window-x="0"
    inkscape:window-y="27"
    inkscape:window-maximized="1"
    inkscape:current-layer="Clapper"
  /><style type="text/css" id="style2">
.st0 {
  display: none;
}
.st1 {
  display: inline;
}
.st2 {
  opacity: 0.5;
}
.st3 {
  opacity: 0.4;
}
.st4 {
  display: inline;
  opacity: 0.5;
}
.st5 {
  display: inline;
  fill: none;
  stroke: #000000;
  stroke-width: 2;
  stroke-miterlimit: 10;
}
.st6 {
  fill: none;
  stroke: #000000;
  stroke-width: 2;
  stroke-miterlimit: 10;
}
.st7 {
  clip-path: url(#SVGID_2_);
}
.st8 {
  clip-path: url(#SVGID_4_);
}
.st9 {
  stroke: #000000;
  stroke-width: 3;
  stroke-miterlimit: 10;
}
.st10 {
  fill: #ffffff;
}
.st11 {
  display: inline;
  opacity: 0.3;
}
.st12 {
  display: inline;
  fill: none;
  stroke: #000000;
  stroke-width: 3;
  stroke-miterlimit: 10;
}
  </style><g id="Clapper"><g id="g4407"><g id="g4405"><path
          d="m 2070.5,2008.7 c -15.6,0 -31.2,0 -46.8,0 -42.1,0 -84.1,0 -126.2,0 -62.4,0 -124.7,0 -187.1,0 -76.1,0 -152.2,0 -228.3,0 -83,0 -166.1,0 -249.1,0 -84.4,0 -168.8,0 -253.2,0 -78.2,0 -156.3,0 -234.5,0 -66.3,0 -132.6,0 -198.8,0 -47.7,0 -95.3,0 -143,0 -22.4,0 -45.2,-1 -67.6,0 -1,0 -2,0 -3,0 5,5 10,10 15,15 0,-35.6 0,-71.3 0,-106.9 0,-85.5 0,-171.1 0,-256.6 0,-103.1 0,-206.3 0,-309.4 0,-89.1 0,-178.3 0,-267.4 0,-29.5 0,-58.9 0,-88.4 0,-13.8 1,-28.1 0,-41.8 0,-0.6 0,-1.2 0,-1.8 -5,5 -10,10 -15,15 15.6,0 31.2,0 46.8,0 42.1,0 84.1,0 126.2,0 62.4,0 124.7,0 187.1,0 76.1,0 152.2,0 228.3,0 83,0 166.1,0 249.1,0 84.4,0 168.8,0 253.2,0 78.2,0 156.3,0 234.5,0 66.3,0 132.6,0 198.8,0 47.7,0 95.3,0 143,0 22.4,0 45.2,1 67.6,0 1,0 2,0 3,0 -5,-5 -10,-10 -15,-15 0,35.6 0,71.3 0,106.9 0,85.5 0,171.1 0,256.6 0,103.1 0,206.3 0,309.4 0,89.1 0,178.3 0,267.4 0,43.3 -1.3,86.9 0,130.2 0,0.6 0,1.2 0,1.8 0,19.3 30,19.3 30,0 0,-35.6 0,-71.3 0,-106.9 0,-85.5 0,-171.1 0,-256.6 0,-103.1 0,-206.3 0,-309.4 0,-89.1 0,-178.3 0,-267.4 0,-43.3 1.3,-86.9 0,-130.2 0,-0.6 0,-1.2 0,-1.8 0,-8.1 -6.9,-15 -15,-15 -15.6,0 -31.2,0 -46.8,0 -42.1,0 -84.1,0 -126.2,0 -62.4,0 -124.7,0 -187.1,0 -76.1,0 -152.2,0 -228.3,0 -83,0 -166.1,0 -249.1,0 -84.4,0 -168.8,0 -253.2,0 -78.2,0 -156.3,0 -234.5,0 -66.3,0 -132.6,0 -198.8,0 -47.7,0 -95.3,0 -143,0 -22.5,0 -45.1,-0.4 -67.6,0 -1,0 -2,0 -3,0 -8.1,0 -15,6.9 -15,15 0,35.6 0,71.3 0,106.9 0,85.5 0,171.1 0,256.6 0,103.1 0,206.3 0,309.4 0,89.1 0,178.3 0,267.4 0,43.3 -1.3,86.9 0,130.2 0,0.6 0,1.2 0,1.8 0,8.1 6.9,15 15,15 15.6,0 31.2,0 46.8,0 42.1,0 84.1,0 126.2,0 62.4,0 124.7,0 187.1,0 76.1,0 152.2,0 228.3,0 83,0 166.1,0 249.1,0 84.4,0 168.8,0 253.2,0 78.2,0 156.3,0 234.5,0 66.3,0 132.6,0 198.8,0 47.7,0 95.3,0 143,0 22.5,0 45.1,0.4 67.6,0 1,0 2,0 3,0 19.3,0 19.3,-30 0,-30 z"
          id="path4403"
          inkscape:connector-curvature="0"
        /></g></g><g id="g4413"><g id="g4411"><path
          d="m 1977,335.8 c -14.6,5.3 -29.2,10.6 -43.8,15.9 -39.7,14.4 -79.4,28.9 -119.1,43.3 -58.5,21.3 -117,42.6 -175.4,63.9 -71.3,26 -142.6,51.9 -214,77.9 -78.4,28.5 -156.8,57.1 -235.1,85.6 -79.1,28.8 -158.2,57.6 -237.4,86.4 -73.5,26.8 -147,53.5 -220.6,80.3 -62.1,22.6 -124.3,45.2 -186.4,67.9 -44.8,16.3 -89.7,32.6 -134.5,49 -21.1,7.7 -42.9,14.5 -63.6,23.2 -0.9,0.4 -1.8,0.7 -2.7,1 6.2,3.5 12.3,7 18.5,10.5 -22.9,-62.9 -45.8,-125.8 -68.7,-188.8 -3.2,-8.8 -6.4,-17.6 -9.6,-26.4 -3.5,6.2 -7,12.3 -10.5,18.5 14.6,-5.3 29.2,-10.6 43.8,-15.9 39.7,-14.4 79.4,-28.9 119.1,-43.3 58.5,-21.3 117,-42.6 175.4,-63.9 71.3,-26 142.6,-51.9 214,-77.9 78.4,-28.5 156.8,-57.1 235.1,-85.6 79.1,-28.8 158.2,-57.6 237.4,-86.4 73.5,-26.8 147,-53.5 220.6,-80.3 62.1,-22.6 124.3,-45.2 186.4,-67.9 44.8,-16.3 89.7,-32.6 134.5,-49 21.1,-7.7 42.9,-14.5 63.6,-23.2 0.9,-0.4 1.8,-0.7 2.7,-1 -6.2,-3.5 -12.3,-7 -18.5,-10.5 22.9,62.9 45.8,125.8 68.7,188.8 3.2,8.8 6.4,17.6 9.6,26.4 2.8,7.6 10.2,12.7 18.5,10.5 7.3,-2 13.3,-10.8 10.5,-18.5 -22.9,-62.9 -45.8,-125.8 -68.7,-188.8 -3.2,-8.8 -6.4,-17.6 -9.6,-26.4 -2.6,-7.1 -10.3,-13.4 -18.5,-10.5 -14.6,5.3 -29.2,10.6 -43.8,15.9 -39.7,14.4 -79.4,28.9 -119.1,43.3 -58.5,21.3 -117,42.6 -175.4,63.9 -71.3,26 -142.6,51.9 -214,77.9 -78.4,28.5 -156.8,57.1 -235.1,85.6 -79.1,28.8 -158.2,57.6 -237.4,86.4 -73.5,26.8 -147,53.5 -220.6,80.3 -62.1,22.6 -124.3,45.2 -186.4,67.9 -44.8,16.3 -89.7,32.6 -134.5,49 -21.2,7.7 -42.5,15.3 -63.6,23.2 -0.9,0.3 -1.8,0.7 -2.7,1 -7.1,2.6 -13.4,10.3 -10.5,18.5 22.9,62.9 45.8,125.8 68.7,188.8 3.2,8.8 6.4,17.6 9.6,26.4 2.6,7.1 10.3,13.4 18.5,10.5 14.6,-5.3 29.2,-10.6 43.8,-15.9 39.7,-14.4 79.4,-28.9 119.1,-43.3 58.5,-21.3 117,-42.6 175.4,-63.9 71.3,-26 142.6,-51.9 214,-77.9 78.4,-28.5 156.8,-57.1 235.1,-85.6 79.1,-28.8 158.2,-57.6 237.4,-86.4 73.5,-26.8 147,-53.5 220.6,-80.3 62.1,-22.6 124.3,-45.2 186.4,-67.9 44.8,-16.3 89.7,-32.6 134.5,-49 21.2,-7.7 42.5,-15.3 63.6,-23.2 0.9,-0.3 1.8,-0.7 2.7,-1 7.6,-2.8 12.7,-10.2 10.5,-18.5 -2.1,-7.4 -10.9,-13.3 -18.5,-10.5 z"
          id="path4409"
          inkscape:connector-curvature="0"
        /></g></g><g id="g4419"><g id="g4417"><path
          d="m 422.4,1176.4 c 13.9,0 27.8,0 41.7,0 37.5,0 75,0 112.5,0 55.6,0 111.2,0 166.8,0 67.8,0 135.7,0 203.5,0 74,0 148.1,0 222.1,0 75.2,0 150.5,0 225.7,0 69.7,0 139.4,0 209,0 59.1,0 118.2,0 177.3,0 42.5,0 85,0 127.5,0 20.1,0 40.2,0.4 60.2,0 0.9,0 1.8,0 2.6,0 19.3,0 19.3,-30 0,-30 -13.9,0 -27.8,0 -41.7,0 -37.5,0 -75,0 -112.5,0 -55.6,0 -111.2,0 -166.8,0 -67.8,0 -135.7,0 -203.5,0 -74,0 -148.1,0 -222.1,0 -75.2,0 -150.5,0 -225.7,0 -69.7,0 -139.4,0 -209,0 -59.1,0 -118.2,0 -177.3,0 -42.5,0 -85,0 -127.5,0 -20.1,0 -40.2,-0.4 -60.2,0 -0.9,0 -1.8,0 -2.6,0 -19.3,0 -19.4,30 0,30 z"
          id="path4415"
          inkscape:connector-curvature="0"
        /></g></g><g id="g4425"><g id="g4423"><path
          d="m 422.4,1065.8 c 29.9,0 59.7,0 89.6,0 47.2,0 94.3,0 141.5,0 10.9,0 21.7,0 32.6,0 7.8,0 15.4,-6.9 15,-15 -0.4,-8.1 -6.6,-15 -15,-15 -29.9,0 -59.7,0 -89.6,0 -47.2,0 -94.3,0 -141.5,0 -10.9,0 -21.7,0 -32.6,0 -7.8,0 -15.4,6.9 -15,15 0.3,8.1 6.6,15 15,15 z"
          id="path4421"
          inkscape:connector-curvature="0"
        /></g></g><g id="g4431"><g id="g4429"><path
          d="m 422.4,1327.8 c 29.9,0 59.7,0 89.6,0 47.2,0 94.3,0 141.5,0 10.9,0 21.7,0 32.6,0 7.8,0 15.4,-6.9 15,-15 -0.4,-8.1 -6.6,-15 -15,-15 -29.9,0 -59.7,0 -89.6,0 -47.2,0 -94.3,0 -141.5,0 -10.9,0 -21.7,0 -32.6,0 -7.8,0 -15.4,6.9 -15,15 0.3,8.2 6.6,15 15,15 z"
          id="path4427"
          inkscape:connector-curvature="0"
        /></g></g><g id="g4437"><g id="g4435"><path
          d="m 422.4,1646.8 c 29.9,0 59.7,0 89.6,0 47.2,0 94.3,0 141.5,0 10.9,0 21.7,0 32.6,0 7.8,0 15.4,-6.9 15,-15 -0.4,-8.1 -6.6,-15 -15,-15 -29.9,0 -59.7,0 -89.6,0 -47.2,0 -94.3,0 -141.5,0 -10.9,0 -21.7,0 -32.6,0 -7.8,0 -15.4,6.9 -15,15 0.3,8.1 6.6,15 15,15 z"
          id="path4433"
          inkscape:connector-curvature="0"
        /></g></g><g id="g4443"><g id="g4441"><path
          d="m 877.2,1646.8 c 29.9,0 59.7,0 89.6,0 47.2,0 94.3,0 141.5,0 10.9,0 21.7,0 32.6,0 7.8,0 15.4,-6.9 15,-15 -0.4,-8.1 -6.6,-15 -15,-15 -29.9,0 -59.7,0 -89.6,0 -47.2,0 -94.3,0 -141.5,0 -10.9,0 -21.7,0 -32.6,0 -7.8,0 -15.4,6.9 -15,15 0.3,8.1 6.6,15 15,15 z"
          id="path4439"
          inkscape:connector-curvature="0"
        /></g></g><g id="g4449"><g id="g4447"><path
          d="m 1519.5,1646.8 c 29.9,0 59.7,0 89.6,0 47.2,0 94.3,0 141.5,0 10.9,0 21.7,0 32.6,0 7.8,0 15.4,-6.9 15,-15 -0.4,-8.1 -6.6,-15 -15,-15 -29.9,0 -59.7,0 -89.6,0 -47.2,0 -94.3,0 -141.5,0 -10.9,0 -21.7,0 -32.6,0 -7.8,0 -15.4,6.9 -15,15 0.4,8.1 6.6,15 15,15 z"
          id="path4445"
          inkscape:connector-curvature="0"
        /></g></g><g id="g4455"><g id="g4453"><path
          d="m 422.4,1418.4 c 13.9,0 27.8,0 41.7,0 37.5,0 75,0 112.5,0 55.6,0 111.2,0 166.8,0 67.8,0 135.7,0 203.5,0 74,0 148.1,0 222.1,0 75.2,0 150.5,0 225.7,0 69.7,0 139.4,0 209,0 59.1,0 118.2,0 177.3,0 42.5,0 85,0 127.5,0 20.1,0 40.2,0.4 60.2,0 0.9,0 1.8,0 2.6,0 19.3,0 19.3,-30 0,-30 -13.9,0 -27.8,0 -41.7,0 -37.5,0 -75,0 -112.5,0 -55.6,0 -111.2,0 -166.8,0 -67.8,0 -135.7,0 -203.5,0 -74,0 -148.1,0 -222.1,0 -75.2,0 -150.5,0 -225.7,0 -69.7,0 -139.4,0 -209,0 -59.1,0 -118.2,0 -177.3,0 -42.5,0 -85,0 -127.5,0 -20.1,0 -40.2,-0.4 -60.2,0 -0.9,0 -1.8,0 -2.6,0 -19.3,0 -19.4,30 0,30 z"
          id="path4451"
          inkscape:connector-curvature="0"
        /></g></g><g id="g4461"><g id="g4459"><path
          d="m 422.4,1710.9 c 13.9,0 27.8,0 41.7,0 37.5,0 75,0 112.5,0 55.6,0 111.2,0 166.8,0 67.8,0 135.7,0 203.5,0 74,0 148.1,0 222.1,0 75.2,0 150.5,0 225.7,0 69.7,0 139.4,0 209,0 59.1,0 118.2,0 177.3,0 42.5,0 85,0 127.5,0 20.1,0 40.2,0.4 60.2,0 0.9,0 1.8,0 2.6,0 19.3,0 19.3,-30 0,-30 -13.9,0 -27.8,0 -41.7,0 -37.5,0 -75,0 -112.5,0 -55.6,0 -111.2,0 -166.8,0 -67.8,0 -135.7,0 -203.5,0 -74,0 -148.1,0 -222.1,0 -75.2,0 -150.5,0 -225.7,0 -69.7,0 -139.4,0 -209,0 -59.1,0 -118.2,0 -177.3,0 -42.5,0 -85,0 -127.5,0 -20.1,0 -40.2,-0.4 -60.2,0 -0.9,0 -1.8,0 -2.6,0 -19.3,0 -19.4,30 0,30 z"
          id="path4457"
          inkscape:connector-curvature="0"
        /></g></g><g id="g4467"><g id="g4465"><path
          d="m 862.2,1758.8 c 0,23.4 0,46.9 0,70.3 0,37.4 0,74.8 0,112.2 0,8.6 0,17.3 0,25.9 0,7.8 6.9,15.4 15,15 8.1,-0.4 15,-6.6 15,-15 0,-23.4 0,-46.9 0,-70.3 0,-37.4 0,-74.8 0,-112.2 0,-8.6 0,-17.3 0,-25.9 0,-7.8 -6.9,-15.4 -15,-15 -8.2,0.4 -15,6.6 -15,15 z"
          id="path4463"
          inkscape:connector-curvature="0"
        /></g></g><g id="g4473"><g id="g4471"><path
          d="m 1504.9,1758.8 c 0,23.4 0,46.9 0,70.3 0,37.4 0,74.8 0,112.2 0,8.6 0,17.3 0,25.9 0,7.8 6.9,15.4 15,15 8.1,-0.4 15,-6.6 15,-15 0,-23.4 0,-46.9 0,-70.3 0,-37.4 0,-74.8 0,-112.2 0,-8.6 0,-17.3 0,-25.9 0,-7.8 -6.9,-15.4 -15,-15 -8.1,0.4 -15,6.6 -15,15 z"
          id="path4469"
          inkscape:connector-curvature="0"
        /></g></g><g id="g4479"><g id="g4477"><path
          d="m 539.6,877.1 c 3,-28.6 6,-57.1 8.9,-85.7 4.7,-45.5 9.5,-91 14.2,-136.4 1.1,-10.4 2.2,-20.8 3.3,-31.2 0.8,-7.8 -7.5,-15.3 -15,-15 -8.8,0.4 -14.1,6.6 -15,15 -3,28.6 -6,57.1 -8.9,85.7 -4.7,45.5 -9.5,91 -14.2,136.4 -1.1,10.4 -2.2,20.8 -3.3,31.2 -0.8,7.8 7.5,15.3 15,15 8.8,-0.4 14.1,-6.6 15,-15 z"
          id="path4475"
          inkscape:connector-curvature="0"
        /></g></g><g id="g4485"><g id="g4483"><path
          d="m 715.9,817.8 c 3,-28.6 6,-57.1 8.9,-85.7 4.7,-45.5 9.5,-91 14.2,-136.4 1.1,-10.4 2.2,-20.8 3.3,-31.2 0.8,-7.8 -7.5,-15.3 -15,-15 -8.8,0.4 -14.1,6.6 -15,15 -3,28.6 -6,57.1 -8.9,85.7 -4.7,45.5 -9.5,91 -14.2,136.4 -1.1,10.4 -2.2,20.8 -3.3,31.2 -0.8,7.8 7.5,15.3 15,15 8.8,-0.4 14.1,-6.6 15,-15 z"
          id="path4481"
          inkscape:connector-curvature="0"
        /></g></g><g id="g4491"><g id="g4489"><path
          d="m 892.2,750.5 c 3,-28.6 6,-57.1 8.9,-85.7 4.7,-45.5 9.5,-91 14.2,-136.4 1.1,-10.4 2.2,-20.8 3.3,-31.2 0.8,-7.8 -7.5,-15.3 -15,-15 -8.8,0.4 -14.1,6.6 -15,15 -3,28.6 -6,57.1 -8.9,85.7 -4.7,45.5 -9.5,91 -14.2,136.4 -1.1,10.4 -2.2,20.8 -3.3,31.2 -0.8,7.8 7.5,15.3 15,15 8.9,-0.4 14.2,-6.6 15,-15 z"
          id="path4487"
          inkscape:connector-curvature="0"
        /></g></g><g id="g4497"><g id="g4495"><path
          d="m 1068.5,691.2 c 3,-28.6 6,-57.1 8.9,-85.7 4.7,-45.5 9.5,-91 14.2,-136.4 1.1,-10.4 2.2,-20.8 3.3,-31.2 0.8,-7.8 -7.5,-15.3 -15,-15 -8.8,0.4 -14.1,6.6 -15,15 -3,28.6 -6,57.1 -8.9,85.7 -4.7,45.5 -9.5,91 -14.2,136.4 -1.1,10.4 -2.2,20.8 -3.3,31.2 -0.8,7.8 7.5,15.3 15,15 8.9,-0.4 14.2,-6.6 15,-15 z"
          id="path4493"
          inkscape:connector-curvature="0"
        /></g></g><g id="g4503"><g id="g4501"><path
          d="m 1244.8,623.9 c 3,-28.6 6,-57.1 8.9,-85.7 4.7,-45.5 9.5,-91 14.2,-136.4 1.1,-10.4 2.2,-20.8 3.3,-31.2 0.8,-7.8 -7.5,-15.3 -15,-15 -8.8,0.4 -14.1,6.6 -15,15 -3,28.6 -6,57.1 -8.9,85.7 -4.7,45.5 -9.5,91 -14.2,136.4 -1.1,10.4 -2.2,20.8 -3.3,31.2 -0.8,7.8 7.5,15.3 15,15 8.9,-0.4 14.2,-6.6 15,-15 z"
          id="path4499"
          inkscape:connector-curvature="0"
        /></g></g><g id="g4509"><g id="g4507"><path
          d="m 1421.2,556.6 c 3,-28.6 6,-57.1 8.9,-85.7 4.7,-45.5 9.5,-91 14.2,-136.4 1.1,-10.4 2.2,-20.8 3.3,-31.2 0.8,-7.8 -7.5,-15.3 -15,-15 -8.8,0.4 -14.1,6.6 -15,15 -3,28.6 -6,57.1 -8.9,85.7 -4.7,45.5 -9.5,91 -14.2,136.4 -1.1,10.4 -2.2,20.8 -3.3,31.2 -0.8,7.8 7.5,15.3 15,15 8.8,-0.4 14.1,-6.6 15,-15 z"
          id="path4505"
          inkscape:connector-curvature="0"
        /></g></g><g id="g4515"><g id="g4513"><path
          d="m 1597.5,497.3 c 3,-28.6 6,-57.1 8.9,-85.7 4.7,-45.5 9.5,-91 14.2,-136.4 1.1,-10.4 2.2,-20.8 3.3,-31.2 0.8,-7.8 -7.5,-15.3 -15,-15 -8.8,0.4 -14.1,6.6 -15,15 -3,28.6 -6,57.1 -8.9,85.7 -4.7,45.5 -9.5,91 -14.2,136.4 -1.1,10.4 -2.2,20.8 -3.3,31.2 -0.8,7.8 7.5,15.3 15,15 8.8,-0.4 14.1,-6.6 15,-15 z"
          id="path4511"
          inkscape:connector-curvature="0"
        /></g></g><g id="g4521"><g id="g4519"><path
          d="m 1773.8,430 c 3,-28.6 6,-57.1 8.9,-85.7 4.7,-45.5 9.5,-91 14.2,-136.4 1.1,-10.4 2.2,-20.8 3.3,-31.2 0.8,-7.8 -7.5,-15.3 -15,-15 -8.8,0.4 -14.1,6.6 -15,15 -3,28.6 -6,57.1 -8.9,85.7 -4.7,45.5 -9.5,91 -14.2,136.4 -1.1,10.4 -2.2,20.8 -3.3,31.2 -0.8,7.8 7.5,15.3 15,15 8.8,-0.4 14.1,-6.7 15,-15 z"
          id="path4517"
          inkscape:connector-curvature="0"
        /></g></g><g id="g4527"><g id="g4525"><path
          d="m 445,809.8 c 0,1.2 -0.1,2.3 -0.1,3.5 -0.1,2.6 0.8,-3.4 -0.1,0.8 -0.4,1.8 -0.7,3.5 -1.3,5.2 0,-0.1 -1.4,4 -0.6,1.9 0.8,-2 -0.9,1.9 -0.9,1.8 -1,1.9 -2.2,3.8 -3.4,5.6 1.6,-2.4 -1.5,1.7 -2.2,2.5 -1.4,1.4 -2.8,2.7 -4.3,3.9 2.3,-1.8 -1.5,0.9 -2.3,1.3 -0.9,0.6 -1.9,1 -2.9,1.5 -0.6,0.3 -1.2,0.6 -1.8,0.8 1.4,-0.6 1.5,-0.7 0.5,-0.3 -1.9,0.6 -3.8,1.2 -5.8,1.6 -0.9,0.2 -1.8,0.4 -2.7,0.5 3,-0.4 0,-0.1 -0.8,-0.1 -2.1,0.1 -4.2,0 -6.2,-0.1 2.7,0.1 0.6,0.1 -0.1,0 -1.3,-0.3 -2.6,-0.5 -3.9,-0.9 -1.1,-0.3 -2.1,-0.7 -3.2,-1 -2.4,-0.8 3,1.6 -0.7,-0.3 -1.6,-0.8 -3.1,-1.6 -4.6,-2.5 0.1,0.1 -3.4,-2.3 -1.7,-1.1 1.7,1.3 -1.6,-1.3 -1.5,-1.3 -1.6,-1.4 -3.1,-3 -4.5,-4.7 -1.9,-2.1 -0.4,-0.5 0,-0.1 -0.6,-0.9 -1.2,-1.8 -1.8,-2.7 -1,-1.7 -2,-3.4 -2.7,-5.2 1.2,2.8 -0.6,-2.4 -0.9,-3.3 -0.3,-1.1 -0.5,-2.2 -0.7,-3.3 -0.7,-3.1 -0.2,2.1 -0.1,-1.4 0,-1.9 0,-3.7 0,-5.6 0.1,-2.9 0,-0.8 -0.1,-0.1 0.2,-1.1 0.4,-2.2 0.6,-3.3 0.4,-2 1.1,-3.8 1.7,-5.7 -0.9,2.5 -0.3,0.5 0,-0.1 0.6,-1.2 1.2,-2.3 1.8,-3.5 0.6,-0.9 1.2,-1.8 1.8,-2.8 1.3,-2.1 -2.3,2.5 0.4,-0.6 1.2,-1.3 2.3,-2.6 3.6,-3.8 0.8,-0.7 1.6,-1.5 2.4,-2.1 1.9,-1.5 -2.9,1.6 0.6,-0.4 1.9,-1.1 3.7,-2.2 5.7,-3.2 2.6,-1.3 0.6,-0.2 0.1,0 1,-0.4 2.1,-0.7 3.2,-1 1.9,-0.6 3.9,-1 5.9,-1.3 -3.1,0.4 2.6,0 3.6,0 1.2,0 2.3,0.1 3.5,0.2 -2.7,-0.2 0.4,0.1 1.4,0.3 2.2,0.5 4.3,1.1 6.4,1.9 -2.5,-0.9 -0.5,-0.3 0.1,0 1.2,0.6 2.3,1.2 3.5,1.8 0.7,0.4 1.5,1 2.2,1.4 2.9,1.6 -1.2,-1.3 1.1,0.8 1.8,1.6 3.5,3.2 5.1,5 0.5,0.6 2.1,2.9 0.5,0.5 0.7,1.1 1.5,2.2 2.1,3.3 0.4,0.8 0.9,1.5 1.3,2.3 0.2,0.4 1.6,4.2 0.6,1.2 0.7,2.1 1.4,4.2 1.9,6.4 0,0 0.6,4.2 0.4,2 -0.3,-1.4 -0.1,3.3 -0.1,3.8 0.1,7.8 6.8,15.4 15,15 8,-0.4 15.1,-6.6 15,-15 -0.4,-25.9 -16.5,-48.4 -40.8,-57.3 -23.1,-8.4 -50.8,-0.7 -66.3,18.3 -16.2,19.8 -19.1,48.1 -5.7,70.2 13.4,22.2 39,32.8 64.3,28.2 28.2,-5.1 48.1,-31.4 48.5,-59.4 0.1,-7.8 -7,-15.4 -15,-15 -8.2,0.4 -14.8,6.6 -15,15 z"
          id="path4523"
          inkscape:connector-curvature="0"
        /></g></g></g></svg>
