<?xml version="1.0" encoding="UTF-8" standalone="no"?>
<!-- Created with Inkscape (http://www.inkscape.org/) -->

<svg
   xmlns:dc="http://purl.org/dc/elements/1.1/"
   xmlns:cc="http://creativecommons.org/ns#"
   xmlns:rdf="http://www.w3.org/1999/02/22-rdf-syntax-ns#"
   xmlns:svg="http://www.w3.org/2000/svg"
   xmlns="http://www.w3.org/2000/svg"
   xmlns:sodipodi="http://sodipodi.sourceforge.net/DTD/sodipodi-0.dtd"
   xmlns:inkscape="http://www.inkscape.org/namespaces/inkscape"
   viewBox="0 0 210 297"
   id="svg2"
   version="1.1"
   inkscape:version="0.92.2 (5c3e80d, 2017-08-06)"
   sodipodi:docname="Book_thick_generic.svg">
  <defs
     id="defs4" />
  <sodipodi:namedview
     id="base"
     pagecolor="#ffffff"
     bordercolor="#666666"
     borderopacity="1.0"
     inkscape:pageopacity="0.0"
     inkscape:pageshadow="2"
     inkscape:zoom="0.70710678"
     inkscape:cx="-49.640253"
     inkscape:cy="566.45262"
     inkscape:document-units="mm"
     inkscape:current-layer="layer1"
     showgrid="false"
     units="mm"
     showguides="false"
     inkscape:guide-bbox="true"
     inkscape:object-nodes="true"
     inkscape:snap-to-guides="false"
     inkscape:object-paths="false"
     inkscape:snap-smooth-nodes="true"
     inkscape:snap-global="false"
     inkscape:window-width="1920"
     inkscape:window-height="1026"
     inkscape:window-x="0"
     inkscape:window-y="0"
     inkscape:window-maximized="1">
    <inkscape:grid
       type="xygrid"
       id="grid4136" />
    <sodipodi:guide
       orientation="1,0"
       position="121.21831,134.98163"
       id="guide4144"
       inkscape:locked="false" />
    <sodipodi:guide
       orientation="0,1"
       position="190.125,51.566406"
       id="guide4209"
       inkscape:locked="false" />
    <sodipodi:guide
       orientation="0,1"
       position="188.92187,89.28125"
       id="guide4211"
       inkscape:locked="false" />
  </sodipodi:namedview>
  <metadata
     id="metadata7">
    <rdf:RDF>
      <cc:Work
         rdf:about="">
        <dc:format>image/svg+xml</dc:format>
        <dc:type
           rdf:resource="http://purl.org/dc/dcmitype/StillImage" />
        <dc:title></dc:title>
        <cc:license
           rdf:resource="http://creativecommons.org/publicdomain/zero/1.0/" />
        <dc:source>https://publicdomainvectors.org/en/free-clipart/Black-book-with-many-pages/35666.html</dc:source>
      </cc:Work>
      <cc:License
         rdf:about="http://creativecommons.org/publicdomain/zero/1.0/">
        <cc:permits
           rdf:resource="http://creativecommons.org/ns#Reproduction" />
        <cc:permits
           rdf:resource="http://creativecommons.org/ns#Distribution" />
        <cc:permits
           rdf:resource="http://creativecommons.org/ns#DerivativeWorks" />
      </cc:License>
    </rdf:RDF>
  </metadata>
  <g
     inkscape:label="Layer 1"
     inkscape:groupmode="layer"
     id="layer1">
    <g
       id="g3368"
       transform="translate(-1.6644996,-2.6707193)">
      <path
         sodipodi:nodetypes="cccccc"
         inkscape:connector-curvature="0"
         id="use4150"
         d="M 23.13072,243.7844 C 22.60977,233.54298 37.234744,220.04843 59.043889,220.04843 H 190.21175 L 189.9509,47.249059 H 59.04388 c -22.637845,0 -37.518805,14.610435 -35.771353,24.959301"
         style="fill:#000000;fill-rule:evenodd;stroke:none;stroke-width:0.13094676;stroke-linecap:butt;stroke-linejoin:bevel;stroke-miterlimit:12;stroke-dasharray:none;stroke-opacity:1" />
      <path
         sodipodi:nodetypes="ssccccccccccccccccccs"
         inkscape:connector-curvature="0"
         id="path4246"
         d="m 44.285131,86.941583 c -11.213758,0 -17.874699,-4.517049 -18.315013,-9.571187 C 25.056649,66.886415 38.058588,53.316363 59.919504,53.682443 H 184.40647 l -0.67607,2.647119 -2.3215,1.297607 0.0663,2.291867 0.52275,2.64712 -2.477,1.510724 -0.3251,2.718273 -2.67269,1.225423 0.0662,2.291866 -0.9772,2.078579 0.52275,2.647119 -2.47701,1.510724 0.52275,2.64712 -0.9772,2.078578 -3.52039,1.297607 1.56603,2.860408 -2.47701,1.510725 z"
         style="fill:#ffffff;fill-rule:evenodd;stroke:#000000;stroke-width:1.56523359;stroke-linecap:butt;stroke-linejoin:miter;stroke-opacity:1" />
      <path
         sodipodi:nodetypes="ccccccccccccccccccccccccccccccccccc"
         inkscape:connector-curvature="0"
         id="use4268"
         d="m 184.40647,217.64709 -0.78144,2.64712 -2.21618,1.29761 0.0662,2.29187 0.52275,2.64712 -2.477,1.51072 -0.3251,2.71827 -2.67269,1.22543 0.0663,2.29186 -0.97719,2.07858 0.52275,2.64712 -2.47702,1.51072 0.52275,2.64712 -0.97719,2.07858 -3.5204,1.29761 1.56604,2.86041 -2.47702,1.51072 V 86.943302 l 2.47702,-1.510725 -1.56604,-2.860408 3.5204,-1.297607 0.97719,-2.078578 -0.52275,-2.64712 2.21977,-1.53411 -0.2655,-2.623733 0.97719,-2.078579 -0.0663,-2.291866 2.67269,-1.225423 0.3251,-2.718273 2.477,-1.510724 -0.52275,-2.64712 -0.0662,-2.291867 2.3466,-1.297607 0.65099,-2.647119 z"
         style="fill:#ffffff;fill-rule:evenodd;stroke:#000000;stroke-width:1.56523359;stroke-linecap:butt;stroke-linejoin:miter;stroke-opacity:1" />
      <path
         style="fill:#000000;fill-rule:evenodd;stroke:none;stroke-width:0.13094676;stroke-linecap:butt;stroke-linejoin:miter;stroke-opacity:1"
         d="M 42.570482,255.09239 H 173.73833 V 82.293014 H 42.570473 C 30.236207,82.212829 24.281188,77.855438 23.273052,72.233719 L 23.128959,243.74822 c 0.294894,6.22842 6.17981,11.26268 19.441523,11.34417 z"
         id="path4207"
         inkscape:connector-curvature="0"
         sodipodi:nodetypes="ccccccc" />
      <g
         id="g3360">
        <path
           style="fill:#000000;fill-rule:evenodd;stroke:none;stroke-width:1px;stroke-linecap:butt;stroke-linejoin:miter;stroke-opacity:1"
           inkscape:transform-center-x="1.008724"
           inkscape:transform-center-y="0.0041361184"
           d="m 181.62085,58.373079 -0.21194,-0.715384 -32.18426,0.715384 32.18426,0.715384 z"
           id="path4276"
           inkscape:connector-curvature="0" />
        <path
           style="fill:#000000;fill-rule:evenodd;stroke:none;stroke-width:1px;stroke-linecap:butt;stroke-linejoin:miter;stroke-opacity:1"
           inkscape:transform-center-x="1.008724"
           inkscape:transform-center-y="0.0041361184"
           d="m 179.19575,66.795184 -0.479,-1.16611 -72.73945,1.16611 72.73945,1.16611 z"
           id="use4280"
           inkscape:connector-curvature="0" />
        <path
           style="fill:#000000;fill-rule:evenodd;stroke:none;stroke-width:1px;stroke-linecap:butt;stroke-linejoin:miter;stroke-opacity:1"
           inkscape:transform-center-x="1.008724"
           inkscape:transform-center-y="0.0041361184"
           d="m 175.82416,71.645142 -0.10187,-0.529622 -15.46982,0.529622 15.46982,0.529622 z"
           id="use4282"
           inkscape:connector-curvature="0" />
        <path
           style="fill:#000000;fill-rule:evenodd;stroke:none;stroke-width:1px;stroke-linecap:butt;stroke-linejoin:miter;stroke-opacity:1"
           inkscape:transform-center-x="-0.0041359643"
           inkscape:transform-center-y="1.3455948"
           d="m 181.46569,62.421583 c 0,0 -0.88243,0.308038 -0.88243,0.308038 0.29414,15.592685 0.58829,31.185371 0.88243,46.778059 0,0 0.88243,-46.778059 0.88243,-46.778059 -0.29414,-0.10268 -0.58829,-0.205359 -0.88243,-0.308038 z"
           id="path4300"
           inkscape:connector-curvature="0" />
        <path
           style="fill:#000000;fill-rule:evenodd;stroke:none;stroke-width:1px;stroke-linecap:butt;stroke-linejoin:miter;stroke-opacity:1"
           inkscape:transform-center-x="-0.0041359643"
           inkscape:transform-center-y="1.4798034"
           d="m 178.51105,66.564824 c -0.36195,0.164981 -0.7239,0.329963 -1.08585,0.494944 0.36195,25.053737 0.7239,50.107472 1.08585,75.161212 0,0 1.08585,-75.161212 1.08585,-75.161212 -0.36195,-0.164981 -0.7239,-0.329963 -1.08585,-0.494944 z"
           id="use4310"
           inkscape:connector-curvature="0" />
        <path
           id="path3450"
           d="m 176.28304,71.139902 -0.644,0.152205 0.89935,22.636919 0.39197,-22.643161 z"
           inkscape:transform-center-y="11.221677"
           inkscape:transform-center-x="0.13457797"
           style="fill:#000000;fill-rule:evenodd;stroke:none;stroke-width:1px;stroke-linecap:butt;stroke-linejoin:miter;stroke-opacity:1"
           inkscape:connector-curvature="0" />
      </g>
    </g>
  </g>
</svg>
