<?xml version="1.0" encoding="UTF-8" standalone="no"?>
<!-- Created with Inkscape (http://www.inkscape.org/) -->

<svg
   xmlns:dc="http://purl.org/dc/elements/1.1/"
   xmlns:cc="http://creativecommons.org/ns#"
   xmlns:rdf="http://www.w3.org/1999/02/22-rdf-syntax-ns#"
   xmlns:svg="http://www.w3.org/2000/svg"
   xmlns="http://www.w3.org/2000/svg"
   xmlns:sodipodi="http://sodipodi.sourceforge.net/DTD/sodipodi-0.dtd"
   xmlns:inkscape="http://www.inkscape.org/namespaces/inkscape"
   width="512"
   height="512"
   id="svg2"
   version="1.1"
   inkscape:version="0.92.2 (5c3e80d, 2017-08-06)"
   sodipodi:docname="copyright.svg">
  <defs
     id="defs4" />
  <sodipodi:namedview
     id="base"
     pagecolor="#ffffff"
     bordercolor="#666666"
     borderopacity="1.0"
     inkscape:pageopacity="0.0"
     inkscape:pageshadow="2"
     inkscape:zoom="0.7"
     inkscape:cx="245.99079"
     inkscape:cy="290.0973"
     inkscape:document-units="px"
     inkscape:current-layer="layer1"
     showgrid="false"
     inkscape:window-width="981"
     inkscape:window-height="630"
     inkscape:window-x="176"
     inkscape:window-y="273"
     inkscape:window-maximized="0" />
  <metadata
     id="metadata7">
    <rdf:RDF>
      <cc:Work
         rdf:about="">
        <dc:format>image/svg+xml</dc:format>
        <dc:type
           rdf:resource="http://purl.org/dc/dcmitype/StillImage" />
        <dc:title></dc:title>
        <cc:license
           rdf:resource="http://creativecommons.org/publicdomain/zero/1.0/" />
        <dc:source>https://commons.wikimedia.org/wiki/File:CopyrightImg.svg</dc:source>
      </cc:Work>
      <cc:License
         rdf:about="http://creativecommons.org/publicdomain/zero/1.0/">
        <cc:permits
           rdf:resource="http://creativecommons.org/ns#Reproduction" />
        <cc:permits
           rdf:resource="http://creativecommons.org/ns#Distribution" />
        <cc:permits
           rdf:resource="http://creativecommons.org/ns#DerivativeWorks" />
      </cc:License>
    </rdf:RDF>
  </metadata>
  <g
     inkscape:label="Calque 1"
     inkscape:groupmode="layer"
     id="layer1"
     transform="translate(0,-540.36218)">
    <path
       style="font-style:normal;font-variant:normal;font-weight:bold;font-stretch:normal;font-size:250px;line-height:125%;font-family:'Open Sans';-inkscape-font-specification:'Open Sans Bold';text-align:start;letter-spacing:0px;word-spacing:0px;writing-mode:lr-tb;text-anchor:start;fill:#222222;fill-opacity:1;stroke:none"
       d="M 256,56 C 145.8185,56 56,145.81851 56,256 56,366.1815 145.8185,456 256,456 366.1815,456 456,366.1815 456,256 456,145.81851 366.1815,56 256,56 Z m 0,46.5 c 85.04475,0 153.46875,68.45526 153.46875,153.5 0,85.04475 -68.424,153.46875 -153.46875,153.46875 -85.04474,0 -153.5,-68.424 -153.5,-153.46875 0,-85.04474 68.45526,-153.5 153.5,-153.5 z m 4.15625,51.0625 c -39.13235,-0.80629 -78.51589,25.43602 -88.4375,64.03125 -10.21976,33.57492 -7.3858,72.18879 10.40625,102.625 15.43541,24.28529 44.01013,38.37916 72.59375,38.03125 19.64465,0.72537 40.16573,-1.38386 58,-9.71875 8.19288,-7.76814 2.30599,-20.07066 4.59375,-29.65625 0.73479,-6.25497 -5.22762,-13.28916 -11.75,-10.28125 -22.35127,5.77012 -47.84842,11.69317 -69.375,0.71875 -18.82999,-11.12914 -23.77244,-35.07114 -23.09375,-55.40625 0.11235,-19.7971 7.05007,-42.12407 25.71875,-51.8125 19.50272,-9.90889 42.66078,-4.87326 61.65625,3.59375 8.89144,1.16073 15.42939,-7.0996 16.9375,-14.96875 3.11909,-6.71296 6.56542,-13.28698 9.34375,-20.15625 -19.94273,-11.92066 -43.36139,-17.52365 -66.59375,-17 z"
       transform="translate(0,540.36218)"
       id="text2985"
       inkscape:connector-curvature="0" />
  </g>
</svg>
