<?xml version="1.0" encoding="UTF-8" standalone="no" ?>
<svg
  xmlns:dc="http://purl.org/dc/elements/1.1/"
  xmlns:cc="http://creativecommons.org/ns#"
  xmlns:rdf="http://www.w3.org/1999/02/22-rdf-syntax-ns#"
  xmlns:svg="http://www.w3.org/2000/svg"
  xmlns="http://www.w3.org/2000/svg"
  xmlns:sodipodi="http://sodipodi.sourceforge.net/DTD/sodipodi-0.dtd"
  xmlns:inkscape="http://www.inkscape.org/namespaces/inkscape"
  version="1.1"
  x="0px"
  y="0px"
  viewBox="0 0 157.70413 160.76103"
  enable-background="new 0 0 100 100"
  xml:space="preserve"
  id="svg10"
  sodipodi:docname="manage-labels.svg"
  width="157.70413"
  height="160.76103"
  inkscape:version="0.92.2 (5c3e80d, 2017-08-06)"
><metadata id="metadata16"><rdf:RDF><cc:Work rdf:about=""><dc:format
        >image/svg+xml</dc:format><dc:type
          rdf:resource="http://purl.org/dc/dcmitype/StillImage"
        /><dc:title /><cc:license
          rdf:resource="http://creativecommons.org/licenses/by-sa/4.0/"
        /><dc:creator><cc:Agent><dc:title
            >John Cummings</dc:title></cc:Agent></dc:creator><dc:rights
        ><cc:Agent><dc:title
            >Creative Commons Attribution-ShareAlike 4.0 International
</dc:title></cc:Agent></dc:rights><dc:source
        >https://commons.wikimedia.org/wiki/File:Noun_Project_label_icon_1116097_cc_mirror.svg</dc:source></cc:Work><cc:License
        rdf:about="http://creativecommons.org/licenses/by-sa/4.0/"
      ><cc:permits
          rdf:resource="http://creativecommons.org/ns#Reproduction"
        /><cc:permits
          rdf:resource="http://creativecommons.org/ns#Distribution"
        /><cc:requires
          rdf:resource="http://creativecommons.org/ns#Notice"
        /><cc:requires
          rdf:resource="http://creativecommons.org/ns#Attribution"
        /><cc:permits
          rdf:resource="http://creativecommons.org/ns#DerivativeWorks"
        /><cc:requires
          rdf:resource="http://creativecommons.org/ns#ShareAlike"
        /></cc:License></rdf:RDF></metadata><defs
    id="defs14"
  /><sodipodi:namedview
    pagecolor="#ffffff"
    bordercolor="#666666"
    borderopacity="1"
    objecttolerance="10"
    gridtolerance="10"
    guidetolerance="10"
    inkscape:pageopacity="0"
    inkscape:pageshadow="2"
    inkscape:window-width="1366"
    inkscape:window-height="705"
    id="namedview12"
    showgrid="false"
    fit-margin-top="10"
    fit-margin-left="10"
    fit-margin-right="10"
    fit-margin-bottom="10"
    inkscape:zoom="1.888"
    inkscape:cx="-20.707247"
    inkscape:cy="-51.568181"
    inkscape:window-x="-8"
    inkscape:window-y="-8"
    inkscape:window-maximized="1"
    inkscape:current-layer="svg10"
  /><path
    d="m 69.146834,150.76103 c 4.426971,0 9.037479,-1.75719 13.704067,-5.2257 0.108763,-0.0799 0.209028,-0.16824 0.302496,-0.26171 L 139.29011,87.947319 c 7.21231,-5.73552 9.80731,-14.168008 7.71024,-25.066344 L 144.45803,12.422 c -0.0697,-1.373126 -1.159,-2.4437566 -2.58821,-2.421664 L 92.948814,10.846644 C 82.006293,9.4225353 73.691064,12.515468 68.297127,19.953799 L 14.602465,79.756147 c -0.0833,0.09177 -0.15635,0.186936 -0.22602,0.288901 -6.4322798,9.647568 -5.7644098,18.785313 1.93903,26.422482 l 40.72304,39.52834 c 0.0527,0.0527 0.10706,0.10027 0.16314,0.14615 3.742111,3.06405 7.762923,4.61901 11.945179,4.61901 z m 10.507471,-9.20232 c -3.714917,2.72586 -7.246297,4.10408 -10.509171,4.10408 -2.989267,0 -5.811993,-1.11312 -8.636417,-3.40053 L 19.885935,102.82908 c -5.93605,-5.890166 -6.37959,-12.19329 -1.36802,-19.803262 l 53.66577,-59.76666 c 0.06288,-0.06798 0.118959,-0.141052 0.176739,-0.217525 4.318209,-6.032917 10.91703,-8.350917 20.104057,-7.117143 0.129156,0.01699 0.265109,0.01869 0.385767,0.02379 l 46.643792,-0.807219 2.42336,48.178363 c 0.007,0.122357 0.0238,0.246414 0.0459,0.365373 1.79968,9.144543 -0.14954,15.806242 -5.95474,20.35897 -0.0867,0.06628 -0.16994,0.142751 -0.24641,0.222623 z"
    id="path2"
    inkscape:connector-curvature="0"
    style="stroke-width:1.69941318"
  /><path
    d="m 120.84128,50.701281 c 3.72682,0 6.9574,-1.4479 9.60169,-4.301215 2.56271,-2.487941 3.90695,-5.67604 3.90695,-9.379061 0,-4.042904 -1.34424,-7.400944 -4.00042,-9.984052 -2.58821,-2.661281 -5.8052,-4.036106 -9.50992,-4.036106 -3.70812,0 -7.03727,1.344236 -9.89058,3.99532 -2.69867,2.623894 -4.0463,5.983634 -4.0463,10.024838 0,3.703021 1.34763,6.89112 4.00211,9.472529 2.86012,2.792136 6.20626,4.207747 9.93647,4.207747 z m 0,-22.602195 c 2.30611,0 4.23834,0.829314 5.90546,2.542322 1.70282,1.658627 2.50664,3.728513 2.50664,6.379597 0,2.306104 -0.80382,4.211146 -2.45565,5.818791 -1.7555,1.891447 -3.67074,2.763246 -5.95475,2.763246 -2.38937,0 -4.47455,-0.902389 -6.3762,-2.759847 -1.66032,-1.611044 -2.46245,-3.514387 -2.46245,-5.82219 0,-2.651084 0.80383,-4.72097 2.45906,-6.330314 1.86425,-1.731702 3.96643,-2.591605 6.37789,-2.591605 z"
    id="path4"
    inkscape:connector-curvature="0"
    style="stroke-width:1.69941318"
  /></svg>
