<?xml version="1.0" encoding="UTF-8" standalone="no" ?>
<!-- Created with Inkscape (http://www.inkscape.org/) -->
<svg
  xmlns:dc="http://purl.org/dc/elements/1.1/"
  xmlns:cc="http://creativecommons.org/ns#"
  xmlns:rdf="http://www.w3.org/1999/02/22-rdf-syntax-ns#"
  xmlns:svg="http://www.w3.org/2000/svg"
  xmlns="http://www.w3.org/2000/svg"
  xmlns:xlink="http://www.w3.org/1999/xlink"
  xmlns:sodipodi="http://sodipodi.sourceforge.net/DTD/sodipodi-0.dtd"
  xmlns:inkscape="http://www.inkscape.org/namespaces/inkscape"
  version="1.1"
  id="svg2"
  width="275.20001"
  height="224"
  viewBox="0 0 275.20001 224"
  sodipodi:docname="Master_Link.svg"
  inkscape:version="0.92.3"
>
  <title id="title2662">Master Link</title>
  <metadata id="metadata8">
    <rdf:RDF>
      <cc:Work rdf:about="">
        <dc:format>image/svg+xml</dc:format>
        <dc:type rdf:resource="http://purl.org/dc/dcmitype/StillImage" />
        <dc:title>Master Link</dc:title>
        <dc:creator>
          <cc:Agent>
            <dc:title>Ronpedia, Sebastian Leske</dc:title>
          </cc:Agent>
        </dc:creator>
        <cc:license
          rdf:resource="http://creativecommons.org/publicdomain/zero/1.0/"
        />
      </cc:Work>
      <cc:License rdf:about="http://creativecommons.org/publicdomain/zero/1.0/">
        <cc:permits rdf:resource="http://creativecommons.org/ns#Reproduction" />
        <cc:permits rdf:resource="http://creativecommons.org/ns#Distribution" />
        <cc:permits
          rdf:resource="http://creativecommons.org/ns#DerivativeWorks"
        />
      </cc:License>
    </rdf:RDF>
  </metadata>
  <defs id="defs6">
    <linearGradient inkscape:collect="always" id="linearGradient2682">
      <stop
        style="stop-color:#ffffff;stop-opacity:0.06341463"
        offset="0"
        id="stop2676"
      />
      <stop
        id="stop2678"
        offset="0.48807105"
        style="stop-color:#7c7c7c;stop-opacity:1"
      />
      <stop
        style="stop-color:#ffffff;stop-opacity:0.05365854"
        offset="1"
        id="stop2680"
      />
    </linearGradient>
    <linearGradient inkscape:collect="always" id="linearGradient2668">
      <stop
        style="stop-color:#000000;stop-opacity:1;"
        offset="0"
        id="stop2664"
      />
      <stop
        style="stop-color:#ffffff;stop-opacity:0.25853658"
        offset="1"
        id="stop2666"
      />
    </linearGradient>
    <inkscape:path-effect
      effect="bspline"
      id="path-effect2603"
      is_visible="true"
      weight="33.333333"
      steps="2"
      helper_size="0"
      apply_no_weight="true"
      apply_with_weight="true"
    />
    <inkscape:path-effect
      effect="bspline"
      id="path-effect2556"
      is_visible="true"
      weight="33.333333"
      steps="2"
      helper_size="0"
      apply_no_weight="true"
      apply_with_weight="true"
    />
    <linearGradient inkscape:collect="always" id="linearGradient2510">
      <stop
        style="stop-color:#000000;stop-opacity:1;"
        offset="0"
        id="stop2506"
      />
      <stop
        style="stop-color:#000000;stop-opacity:0;"
        offset="1"
        id="stop2508"
      />
    </linearGradient>
    <linearGradient inkscape:collect="always" id="linearGradient2481">
      <stop
        style="stop-color:#000000;stop-opacity:1"
        offset="0"
        id="stop2477"
      />
      <stop
        style="stop-color:#353535;stop-opacity:0"
        offset="1"
        id="stop2479"
      />
    </linearGradient>
    <inkscape:path-effect
      effect="bspline"
      id="path-effect1010"
      is_visible="true"
      weight="33.333333"
      steps="2"
      helper_size="0"
      apply_no_weight="true"
      apply_with_weight="true"
    />
    <inkscape:path-effect
      effect="bspline"
      id="path-effect1006"
      is_visible="true"
      weight="33.333333"
      steps="2"
      helper_size="0"
      apply_no_weight="true"
      apply_with_weight="true"
    />
    <inkscape:path-effect
      effect="bspline"
      id="path-effect1002"
      is_visible="true"
      weight="33.333333"
      steps="2"
      helper_size="0"
      apply_no_weight="true"
      apply_with_weight="true"
    />
    <inkscape:path-effect
      effect="bspline"
      id="path-effect998"
      is_visible="true"
      weight="33.333333"
      steps="2"
      helper_size="0"
      apply_no_weight="true"
      apply_with_weight="true"
    />
    <inkscape:path-effect
      effect="bspline"
      id="path-effect994"
      is_visible="true"
      weight="33.333333"
      steps="2"
      helper_size="0"
      apply_no_weight="true"
      apply_with_weight="true"
    />
    <inkscape:path-effect
      effect="bspline"
      id="path-effect990"
      is_visible="true"
      weight="33.333333"
      steps="2"
      helper_size="0"
      apply_no_weight="true"
      apply_with_weight="true"
    />
    <inkscape:path-effect
      effect="bspline"
      id="path-effect982"
      is_visible="true"
      weight="33.333333"
      steps="2"
      helper_size="0"
      apply_no_weight="true"
      apply_with_weight="true"
    />
    <inkscape:path-effect
      effect="bspline"
      id="path-effect978"
      is_visible="true"
      weight="33.333333"
      steps="2"
      helper_size="0"
      apply_no_weight="true"
      apply_with_weight="true"
    />
    <inkscape:path-effect
      effect="bspline"
      id="path-effect974"
      is_visible="true"
      weight="33.333333"
      steps="2"
      helper_size="0"
      apply_no_weight="true"
      apply_with_weight="true"
    />
    <inkscape:path-effect
      effect="bspline"
      id="path-effect970"
      is_visible="true"
      weight="33.333333"
      steps="2"
      helper_size="0"
      apply_no_weight="true"
      apply_with_weight="true"
    />
    <inkscape:path-effect
      effect="bspline"
      id="path-effect936"
      is_visible="true"
      weight="33.333333"
      steps="2"
      helper_size="0"
      apply_no_weight="true"
      apply_with_weight="true"
    />
    <inkscape:path-effect
      effect="bspline"
      id="path-effect932"
      is_visible="true"
      weight="33.333333"
      steps="2"
      helper_size="0"
      apply_no_weight="true"
      apply_with_weight="true"
    />
    <inkscape:path-effect
      effect="bspline"
      id="path-effect928"
      is_visible="true"
      weight="33.333333"
      steps="2"
      helper_size="0"
      apply_no_weight="true"
      apply_with_weight="true"
    />
    <inkscape:path-effect
      effect="bspline"
      id="path-effect924"
      is_visible="true"
      weight="33.333333"
      steps="2"
      helper_size="0"
      apply_no_weight="true"
      apply_with_weight="true"
    />
    <inkscape:path-effect
      effect="bspline"
      id="path-effect920"
      is_visible="true"
      weight="33.333333"
      steps="2"
      helper_size="0"
      apply_no_weight="true"
      apply_with_weight="true"
    />
    <inkscape:path-effect
      effect="bspline"
      id="path-effect916"
      is_visible="true"
      weight="33.333333"
      steps="2"
      helper_size="0"
      apply_no_weight="true"
      apply_with_weight="true"
    />
    <linearGradient
      inkscape:collect="always"
      xlink:href="#linearGradient2481"
      id="linearGradient2504"
      gradientUnits="userSpaceOnUse"
      x1="107.67344"
      y1="164.32072"
      x2="124.51572"
      y2="136.79529"
      gradientTransform="translate(3.7966102,0.94915254)"
    />
    <linearGradient
      inkscape:collect="always"
      xlink:href="#linearGradient2510"
      id="linearGradient2512"
      x1="82.983765"
      y1="144.43918"
      x2="98.51152"
      y2="121.65952"
      gradientUnits="userSpaceOnUse"
      gradientTransform="translate(3.7966102,0.94915254)"
    />
    <linearGradient
      inkscape:collect="always"
      xlink:href="#linearGradient2510"
      id="linearGradient2532"
      x1="108.25024"
      y1="96.335381"
      x2="126.33518"
      y2="69.759109"
      gradientUnits="userSpaceOnUse"
      gradientTransform="translate(3.7966102,0.94915254)"
    />
    <linearGradient
      inkscape:collect="always"
      xlink:href="#linearGradient2510"
      id="linearGradient2552"
      x1="141.76505"
      y1="107.16086"
      x2="153.28535"
      y2="84.006111"
      gradientUnits="userSpaceOnUse"
      gradientTransform="translate(3.7966102,0.94915254)"
    />
    <linearGradient
      inkscape:collect="always"
      xlink:href="#linearGradient2510"
      id="linearGradient2564"
      x1="142.12599"
      y1="189.80692"
      x2="141.33963"
      y2="166.55267"
      gradientUnits="userSpaceOnUse"
      gradientTransform="translate(3.7966102,0.94915254)"
    />
    <inkscape:path-effect
      effect="bspline"
      id="path-effect2556-0"
      is_visible="true"
      weight="33.333333"
      steps="2"
      helper_size="0"
      apply_no_weight="true"
      apply_with_weight="true"
    />
    <linearGradient
      inkscape:collect="always"
      xlink:href="#linearGradient2668"
      id="linearGradient2599"
      x1="17.237139"
      y1="134.51852"
      x2="14.833989"
      y2="112.65079"
      gradientUnits="userSpaceOnUse"
      gradientTransform="translate(3.7966102,0.94915254)"
    />
    <linearGradient
      inkscape:collect="always"
      xlink:href="#linearGradient2682"
      id="linearGradient2611"
      x1="45.727039"
      y1="68.589073"
      x2="65.459808"
      y2="64.285385"
      gradientUnits="userSpaceOnUse"
      spreadMethod="repeat"
      gradientTransform="matrix(1.3140267,0,0,1.5628413,-11.49064,-36.701073)"
    />
    <linearGradient
      inkscape:collect="always"
      xlink:href="#linearGradient2682"
      id="linearGradient2611-0"
      x1="46.444366"
      y1="69.671814"
      x2="64.842964"
      y2="62.892406"
      gradientUnits="userSpaceOnUse"
      spreadMethod="repeat"
      gradientTransform="matrix(1.4421523,0.18636728,-0.3018895,1.663456,127.37578,1.4217121)"
    />
    <inkscape:path-effect
      effect="bspline"
      id="path-effect2603-2"
      is_visible="true"
      weight="33.333333"
      steps="2"
      helper_size="0"
      apply_no_weight="true"
      apply_with_weight="true"
    />
  </defs>
  <sodipodi:namedview
    pagecolor="#ffffff"
    bordercolor="#666666"
    borderopacity="1"
    objecttolerance="10"
    gridtolerance="10"
    guidetolerance="10"
    inkscape:pageopacity="0"
    inkscape:pageshadow="2"
    inkscape:window-width="1366"
    inkscape:window-height="722"
    id="namedview4"
    showgrid="false"
    inkscape:zoom="1.0535714"
    inkscape:cx="183.13496"
    inkscape:cy="90.714366"
    inkscape:window-x="-4"
    inkscape:window-y="-4"
    inkscape:window-maximized="1"
    inkscape:current-layer="layer2"
    inkscape:pagecheckerboard="true"
  />
  <g
    inkscape:groupmode="layer"
    id="layer2"
    inkscape:label="Trace"
    style="display:inline;opacity:1"
  >
    <path
      style="display:inline;fill:url(#linearGradient2611-0);fill-opacity:1;fill-rule:evenodd;stroke:none;stroke-width:1.8547895;stroke-linecap:butt;stroke-linejoin:miter;stroke-miterlimit:4;stroke-dasharray:none;stroke-opacity:1"
      d="m 172.28457,123.35963 c 0.31721,0.75225 0.95143,2.25627 2.15952,2.75186 1.20809,0.4956 2.98797,-0.0181 5.03584,-0.30265 2.04788,-0.28458 4.36603,-0.34065 6.21923,-0.41842 1.85321,-0.0778 3.24361,-0.17729 4.61333,-0.34999 1.36972,-0.1727 2.72007,-0.41861 4.23558,-0.86471 1.5155,-0.44611 3.19746,-1.09256 4.81097,-1.85431 1.61352,-0.76174 3.16052,-1.63949 3.31629,-2.7611 0.15578,-1.12161 -1.07791,-2.48961 -2.46528,-2.72449 -1.38738,-0.23487 -2.92919,0.663 -4.57274,1.48251 -1.64354,0.81951 -3.38295,1.55771 -5.66051,2.18798 -2.27756,0.63027 -5.07963,1.14848 -8.17046,1.48036 -3.09083,0.33188 -6.46325,0.47621 -8.15112,0.54845 -1.68786,0.0722 -1.68786,0.0723 -1.37065,0.82451 z"
      id="path2601-7"
      inkscape:connector-curvature="0"
      inkscape:path-effect="#path-effect2603-2"
      inkscape:original-d="m 171.96736,122.60738 c 0.6358,1.50392 1.27001,3.00794 1.90341,4.51383 1.78123,-0.51473 3.56111,-1.02841 5.33914,-1.54089 2.31788,-0.057 4.63603,-0.113 6.95144,-0.16813 1.39095,-0.10046 2.78136,-0.19996 4.16981,-0.29842 1.35091,-0.24683 2.70126,-0.49274 4.05006,-0.73755 1.68214,-0.64715 3.3641,-1.2936 5.04426,-1.93875 1.54689,-0.87813 3.09389,-1.75588 4.6384,-2.63178 -1.23172,-1.36794 -2.46541,-2.73594 -3.69966,-4.10246 -1.54173,0.89741 -3.08354,1.79528 -4.62807,2.69515 -1.74259,0.73897 -3.482,1.47717 -5.22791,2.2187 -2.80915,0.51871 -5.61121,1.03693 -8.41946,1.5571 -3.37331,0.14343 -6.74573,0.28777 -10.12142,0.43318 z"
      sodipodi:nodetypes="cccccccccccccc"
    />
    <path
      style="fill:url(#linearGradient2611);fill-opacity:1;fill-rule:evenodd;stroke:none;stroke-width:1.70000005;stroke-linecap:butt;stroke-linejoin:miter;stroke-miterlimit:4;stroke-dasharray:none;stroke-opacity:1"
      d="m 48.452599,68.304427 c -1.121062,0.897497 -0.294425,2.489298 1.075081,3.075424 1.369505,0.586125 3.280057,0.165752 5.26167,-0.207449 1.981612,-0.373201 4.036349,-0.699667 5.718715,-0.904768 1.682365,-0.205101 2.994565,-0.289207 4.253926,-0.514263 1.25936,-0.225057 2.467743,-0.591147 3.81109,-0.979136 1.343347,-0.387989 2.824152,-0.798627 4.350566,-1.38944 1.526414,-0.590812 3.101056,-1.362555 3.174505,-2.360773 0.07345,-0.998218 -1.352783,-2.225129 -2.792293,-2.529639 -1.439509,-0.30451 -2.894589,0.313563 -4.246415,0.870122 -1.351826,0.556558 -2.596688,1.050085 -4.807235,1.646708 -2.210547,0.596622 -5.374928,1.292847 -8.493581,1.742962 -3.118653,0.450115 -6.184967,0.652755 -7.306029,1.550252 z"
      id="path2601"
      inkscape:connector-curvature="0"
      inkscape:path-effect="#path-effect2603"
      inkscape:original-d="m 46.504703,67.609744 c 0.828031,1.591559 1.654668,3.18336 2.480679,4.776881 1.911639,-0.421393 3.822191,-0.841766 5.731097,-1.260997 2.054353,-0.327247 4.10909,-0.653714 6.161545,-0.978977 1.312346,-0.08505 2.624546,-0.169155 3.934794,-0.2522 1.20834,-0.366775 2.416723,-0.732866 3.622991,-1.097619 1.480433,-0.411257 2.961238,-0.821895 4.439754,-1.231176 1.574297,-0.772084 3.148939,-1.543827 4.721174,-2.313881 -1.424217,-1.22704 -2.850448,-2.453951 -4.276982,-3.679263 -1.453767,0.61651 -2.908847,1.234582 -4.365241,1.854218 -1.247253,0.493434 -2.491965,0.987339 -3.741637,1.483376 -3.171379,0.696985 -6.33576,1.39321 -9.506013,2.091507 -3.06695,0.201748 -6.133264,0.404387 -9.202161,0.608131 z"
      sodipodi:nodetypes="ccccccccccccc"
    />
    <path
      style="display:inline;fill:url(#linearGradient2599);fill-opacity:1;fill-rule:evenodd;stroke:none;stroke-width:1.70000005;stroke-linecap:butt;stroke-linejoin:miter;stroke-miterlimit:4;stroke-dasharray:none;stroke-opacity:1"
      d="m 26.556623,130.00422 c -0.533713,0.23746 -3.14027,-1.51557 -5.03704,-3.44047 -1.896771,-1.9249 -3.083077,-4.02071 -3.834433,-7.12553 -0.751356,-3.10482 -1.067742,-7.21781 -1.008251,-10.22358 0.05949,-3.00578 0.494518,-4.90408 1.74054,-5.65483 1.246023,-0.75076 3.302515,-0.35527 3.994433,0.77117 0.691918,1.12645 0.0196,2.9852 -0.198085,5.45815 -0.217688,2.47296 0.01944,5.55558 0.39517,8.24528 0.375734,2.68969 0.889526,4.98199 1.916342,7.24375 1.026817,2.26176 2.565038,4.48859 2.031324,4.72606 z"
      id="path2554-8"
      inkscape:connector-curvature="0"
      inkscape:path-effect="#path-effect2556-0"
      inkscape:original-d="m 28.629242,131.99457 c -2.605556,-1.75404 -5.212116,-3.50707 -7.819672,-5.25911 -1.185571,-2.09728 -2.371879,-4.19309 -3.55932,-6.28814 -0.315386,-4.114 -0.63177,-8.22699 -0.949156,-12.33898 0.436028,-1.89931 0.871055,-3.79761 1.305084,-5.69492 2.057504,0.39449 4.113996,0.78997 6.169495,1.18645 -0.671318,1.85776 -1.343636,3.71651 -2.016953,5.57627 0.23845,3.08587 0.47558,6.16849 0.71186,9.25424 0.515276,2.29346 1.029067,4.58576 1.542374,6.88135 1.540307,2.2274 3.078526,4.45423 4.616288,6.68284 z"
      sodipodi:nodetypes="cccccccccc"
    />
    <path
      style="fill:url(#linearGradient2564);fill-opacity:1.0;fill-rule:evenodd;stroke:none;stroke-width:1.70000005;stroke-linecap:butt;stroke-linejoin:miter;stroke-miterlimit:4;stroke-dasharray:none;stroke-opacity:1"
      d="m 151.904,185.59881 c -0.51391,0.35615 -2.88679,-1.14667 -4.66674,-3.04538 -1.77996,-1.8987 -2.96627,-4.19223 -3.83623,-7.43506 -0.86997,-3.24282 -1.42374,-7.43561 -1.50263,-10.16447 -0.0789,-2.72886 0.31666,-3.99465 1.42336,-4.4687 1.1067,-0.47406 2.92763,-0.15738 3.75783,0.79081 0.8302,0.94819 0.67193,2.53081 0.71147,4.86529 0.0395,2.33448 0.27666,5.4171 0.63262,7.98812 0.35595,2.57102 0.83038,4.62691 1.74022,6.76312 0.90984,2.1362 2.25401,4.35011 1.7401,4.70627 z"
      id="path2554"
      inkscape:connector-curvature="0"
      inkscape:path-effect="#path-effect2556"
      inkscape:original-d="m 153.76271,187.45762 c -2.37188,-1.50382 -4.74476,-3.00665 -7.11864,-4.50847 -1.18557,-2.29504 -2.37188,-4.58857 -3.55932,-6.88136 -0.55258,-4.19239 -1.10635,-8.38518 -1.66102,-12.57627 0.3964,-1.26628 0.79196,-2.53207 1.18644,-3.79661 1.81849,0.31509 3.63942,0.63177 5.45763,0.94916 -0.15713,1.58022 -0.31539,3.16284 -0.47458,4.74576 0.23845,3.08587 0.47558,6.16849 0.71186,9.25424 0.47572,2.0561 0.95016,4.11199 1.42373,6.16949 1.34611,2.21447 2.69027,4.42838 4.0339,6.64406 z"
    />
    <path
      style="fill:#800000;fill-opacity:0;fill-rule:evenodd;stroke:#000000;stroke-width:1.70000005;stroke-linecap:butt;stroke-linejoin:miter;stroke-miterlimit:4;stroke-dasharray:none;stroke-opacity:1"
      inkscape:path-effect="#path-effect916"
      inkscape:original-d="m 122.92613,81.825946 c 0,0 -6.03937,7.046098 -9.06056,10.570648 -2.70272,1.188637 -5.59193,2.459891 -8.3894,3.691337 -3.69193,0.110907 -7.605393,0.222717 -11.409589,0.335576 -3.579446,0.782222 -7.381674,1.565022 -11.074011,2.349032 -3.355816,1.789301 -6.710522,3.578471 -10.067283,5.369211 -2.796463,2.79647 -5.815653,5.59194 -8.724979,8.38941 -2.796447,3.02024 -5.591935,6.03937 -8.389403,9.06055 -2.125045,2.46074 -4.24963,4.92078 -6.375945,7.38268 -1.677609,1.00616 -3.354761,2.01245 -5.033642,3.02018 -3.13324,0.67062 -6.263087,1.3413 -9.396131,2.01346 -2.236174,-0.5603 -4.473348,-1.11959 -6.711522,-1.67788 -1.67741,-2.12699 -3.354761,-4.25163 -5.033641,-6.37595 -0.670111,-5.03433 -1.341305,-10.06828 -2.013457,-15.10092 1.790437,-5.03379 3.580479,-10.292 5.369218,-15.436502 2.461316,-3.691474 4.922783,-7.383674 7.382674,-11.074011 3.243888,-3.132064 6.488805,-6.265087 9.731707,-9.396131 2.79659,-1.342883 5.593935,-2.685608 8.389402,-4.026913 4.249803,-0.224621 8.502262,-0.448435 12.751892,-0.671152 3.803257,-1.231142 7.831109,-2.461891 11.745164,-3.691337 3.691209,-2.349315 7.383674,-4.699066 11.074011,-7.047098 2.461115,-2.461115 4.922783,-5.1465 7.382674,-7.718251 2.796357,-3.243614 5.593931,-6.488804 8.389401,-9.731706 3.46748,-2.684725 6.93624,-5.593935 10.40286,-8.389403 4.69758,-0.112823 9.39713,-0.224717 14.0942,-0.335576 2.34952,3.465865 4.69906,6.934239 7.0471,10.402859 0.27273,4.346718 0.83893,13.423044 0.83893,13.423044"
      d="m 122.92613,81.825946 c -3.02019,3.523549 -6.03945,7.046026 -8.90126,9.40289 -2.86181,2.356864 -5.75102,3.628117 -8.99586,4.2979 -3.24484,0.669783 -7.158204,0.784882 -10.852369,1.220959 -3.694164,0.436076 -7.491574,1.241587 -11.015634,2.528047 -3.52406,1.286458 -6.878764,3.075638 -9.982343,5.341108 -3.103579,2.26548 -6.069011,5.11686 -8.921927,8.02569 -2.852915,2.90882 -5.648406,5.92795 -8.109681,8.6689 -2.461275,2.74094 -4.585856,5.20099 -6.487691,6.9352 -1.901836,1.73421 -3.578988,2.7405 -5.985057,3.5799 -2.406068,0.83941 -5.535915,1.51009 -8.220753,1.56623 -2.684838,0.0561 -4.922011,-0.50315 -6.880207,-1.84594 -1.958197,-1.3428 -3.635545,-3.46744 -4.810047,-7.04713 -1.174502,-3.57968 -1.845695,-8.61363 -1.303638,-13.65306 0.542056,-5.03942 2.366801,-10.28556 4.492004,-14.703526 2.125203,-4.417964 4.58667,-8.110164 7.438684,-11.521279 2.852013,-3.411114 6.09693,-6.544137 9.116769,-8.780899 3.019839,-2.236761 5.817184,-3.579486 9.339742,-4.362188 3.522559,-0.782701 7.775018,-1.006515 11.806561,-1.717611 4.031543,-0.711096 8.049342,-1.973833 11.851958,-3.763396 3.802617,-1.789563 7.495082,-4.139314 10.542786,-6.570742 3.047704,-2.431428 5.565228,-5.063385 8.193324,-7.971091 2.628096,-2.907705 5.425669,-6.152894 8.529909,-9.150494 3.10424,-2.997599 6.62764,-5.839053 10.70971,-7.292769 4.08206,-1.453717 8.78161,-1.565611 12.30432,0.111794 3.52271,1.677404 5.87225,5.145776 7.18268,9.05309 1.31043,3.907314 1.59805,8.509226 1.87769,12.983574"
      id="path914"
      inkscape:connector-curvature="0"
      sodipodi:nodetypes="ccccccccccccccccccccccccccc"
    />
    <path
      style="fill:none;fill-rule:evenodd;stroke:#000000;stroke-width:1.70000005;stroke-linecap:butt;stroke-linejoin:miter;stroke-miterlimit:4;stroke-dasharray:none;stroke-opacity:1"
      d="m 28.629242,131.99457 c -2.602134,-1.40949 -5.368867,-2.90814 -7.494507,-5.20163 -2.12564,-2.2935 -3.691565,-5.42535 -4.365263,-9.28463 -0.673697,-3.85928 -0.444638,-8.66954 0.617983,-13.87041 1.06262,-5.200868 2.964642,-10.90693 5.705065,-15.828211 2.740423,-4.921281 6.320655,-9.060924 9.732045,-12.192539 3.41139,-3.131616 6.656128,-5.257479 10.067154,-6.543464 3.411027,-1.285985 6.991783,-1.73358 9.172683,-1.84531 2.180899,-0.111729 2.964153,0.112058 4.643522,-0.04455 1.679369,-0.156609 4.473357,-0.73869 7.02454,-1.567969 2.551183,-0.82928 5.055256,-1.967495 7.795042,-3.421295 2.739785,-1.4538 5.761449,-3.244416 9.004569,-5.9844 3.24312,-2.739984 6.712093,-6.432761 9.843713,-9.955868 3.131621,-3.523107 5.928868,-6.879804 8.613173,-9.508051 2.684309,-2.628247 5.257879,-4.530459 8.053709,-5.816402 2.79583,-1.285942 5.81733,-1.957386 8.78081,-1.957303 2.96348,8.4e-5 5.87293,0.671495 8.44508,1.957584 2.57215,1.286089 4.80988,3.188162 6.41003,5.155649 1.60015,1.967487 2.65019,4.184239 3.2587,6.260388 0.60852,2.076149 0.81863,4.102764 1.02887,6.130679"
      id="path918"
      inkscape:connector-curvature="0"
      inkscape:path-effect="#path-effect920"
      inkscape:original-d="m 28.629242,131.99457 c -2.601489,-1.41068 -5.368221,-2.90933 -8.053827,-4.36249 -1.565121,-3.13324 -3.131044,-6.26509 -4.698065,-9.39613 0.224688,-4.58662 0.448434,-9.39713 0.671152,-14.0942 1.902175,-5.704517 3.804196,-11.41058 5.704793,-17.114374 3.579726,-4.138901 7.159957,-8.278544 10.738436,-12.416316 3.244066,-2.125767 6.488804,-4.25163 9.731707,-6.375946 3.5792,-0.448275 7.159956,-0.895869 10.738435,-1.342304 0.783768,0.222648 1.567022,0.446435 2.349032,0.671152 2.571581,-0.559822 5.370218,-1.119587 8.053827,-1.67788 2.46083,-1.007294 4.922783,-2.238174 7.382674,-3.355761 3.019706,-1.789863 6.04137,-3.580479 9.060555,-5.369218 3.467266,-3.690897 6.936239,-7.383674 10.402859,-11.074011 2.796687,-3.355825 5.593935,-6.712522 8.389402,-10.067283 2.572918,-1.901985 5.146498,-3.804196 7.718248,-5.704794 3.01987,-0.671859 6.04137,-1.343304 9.06056,-2.013456 2.9082,0.669893 5.81765,1.341304 8.72498,2.013456 2.23761,1.90012 4.47534,3.802196 6.71152,5.704794 1.00769,2.012378 2.01445,4.24963 3.02018,6.375946 0.21119,2.026438 0.4213,4.053053 0.63045,6.081081"
      sodipodi:nodetypes="cccccccccccccccccccc"
    />
    <path
      style="fill:none;fill-rule:evenodd;stroke:#000000;stroke-width:1.70000005;stroke-linecap:butt;stroke-linejoin:miter;stroke-miterlimit:4;stroke-dasharray:none;stroke-opacity:1"
      d="m 34.78172,115.88672 c -1.454617,-1.23082 -2.125771,-3.13242 -2.196642,-4.98258 -0.07087,-1.85015 0.518862,-3.85525 1.189828,-5.81215 0.670965,-1.95691 1.454468,-3.97163 2.405148,-5.649041 0.95068,-1.677415 2.069937,-3.020524 3.858816,-4.473886 1.788879,-1.453361 4.251754,-3.020645 7.326989,-5.033534 3.075236,-2.012888 6.76832,-4.474944 10.682731,-7.047266 3.914411,-2.572322 8.054476,-5.257771 11.2421,-6.711581 3.187624,-1.45381 5.425425,-1.67759 7.046487,-0.783355 1.621061,0.894234 2.628279,2.90867 2.854147,5.359101 0.225867,2.450432 -0.337305,5.378928 -1.399998,8.00807 -1.062693,2.629142 -2.628096,4.977246 -4.809838,7.103214 -2.181742,2.125969 -4.976836,4.026631 -7.941741,6.096458 -2.964905,2.06983 -6.095665,4.30609 -9.284208,6.43181 -3.188543,2.12572 -6.431271,4.13845 -8.910433,5.73447 -2.479161,1.59602 -4.344238,2.87826 -6.358632,3.21414 -2.014393,0.33589 -4.250136,-0.22305 -5.704754,-1.45387 z"
      id="path922"
      inkscape:connector-curvature="0"
      inkscape:path-effect="#path-effect924"
      inkscape:original-d="m 33.998459,116.55807 c -0.670152,-1.9026 -1.341304,-3.8042 -2.013457,-5.70479 0.560125,-1.7902 1.119587,-3.8042 1.677881,-5.7048 0.78352,-2.01319 1.567022,-4.02791 2.349033,-6.040364 1.118916,-1.342501 2.238174,-2.685609 3.355761,-4.026914 2.459907,-1.565759 4.922782,-3.133043 7.382674,-4.698065 3.69059,-2.460727 7.383674,-4.922783 11.074011,-7.382674 4.138478,-2.68477 8.278544,-5.370218 12.416316,-8.053827 2.237547,-0.224654 4.475348,-0.448434 6.711522,-0.671152 1.007238,2.011477 2.014456,4.025913 3.020185,6.04037 -0.446524,2.907904 -1.117587,5.815652 -1.677881,8.724979 -1.565641,2.348961 -3.131043,4.697065 -4.698065,7.047098 -2.796841,1.901532 -5.591935,3.802195 -8.389403,5.704789 -3.13233,2.23709 -6.263087,4.47335 -9.396131,6.71152 -3.244077,2.01319 -6.486804,4.02592 -9.731706,6.04037 -1.677486,1.22989 -3.578479,2.45989 -5.369218,3.69134 -2.237606,-0.56065 -4.473348,-1.11959 -6.711522,-1.67788 z"
    />
    <path
      style="fill:none;fill-rule:evenodd;stroke:#000000;stroke-width:1.70000005;stroke-linecap:butt;stroke-linejoin:miter;stroke-miterlimit:4;stroke-dasharray:none;stroke-opacity:1"
      d="m 34.78172,115.88672 c 2.760209,-2.12611 5.519307,-4.25136 8.184755,-5.98475 2.665448,-1.73339 5.239237,-3.07623 7.923172,-4.69782 2.683936,-1.62159 5.481703,-3.52407 7.942166,-5.14572 2.460462,-1.621652 4.58665,-2.964508 6.375907,-4.362474 1.789257,-1.397967 3.244219,-2.852928 4.418246,-4.418469 1.174026,-1.565542 2.069512,-3.244577 2.740344,-4.921855 0.670832,-1.677278 1.118585,-3.356352 1.342145,-4.69821 0.22356,-1.341859 0.22356,-2.349296 0.172683,-3.411807 -0.05088,-1.062512 -0.172922,-2.405011 -0.284699,-3.634555"
      id="path926"
      inkscape:connector-curvature="0"
      inkscape:path-effect="#path-effect928"
      inkscape:original-d="m 34.78172,115.88672 c 2.760098,-2.12625 5.519196,-4.2515 8.277294,-6.37575 2.572714,-1.34276 5.1465,-2.68561 7.71825,-4.02691 2.796167,-1.90172 5.593935,-3.8042 8.389402,-5.704792 2.125443,-1.342753 4.251631,-2.685609 6.375946,-4.026913 1.454365,-1.454366 2.909327,-2.909327 4.36249,-4.36249 0.895254,-1.677726 1.790739,-3.356761 2.684608,-5.033641 0.448117,-1.677687 0.89587,-3.356761 1.342305,-5.033642 10e-4,-1.007019 10e-4,-2.014456 0,-3.020185 -0.110748,-1.118476 -0.222718,-2.461891 -0.335576,-3.691337"
    />
    <path
      style="fill:url(#linearGradient2532);fill-opacity:1.0;fill-rule:evenodd;stroke:#000000;stroke-width:1.70000005;stroke-linecap:butt;stroke-linejoin:miter;stroke-miterlimit:4;stroke-dasharray:none;stroke-opacity:1"
      d="m 109.05573,73.212495 c -6.82359,-4.866361 -7.0473,-6.432384 -6.93537,-8.165849 0.11194,-1.733465 0.55962,-3.636082 1.45428,-5.76068 0.89465,-2.124598 2.23778,-4.475078 3.66412,-6.2966 1.42635,-1.821521 3.0484,-3.211855 4.44628,-4.218221 1.39787,-1.006366 2.62916,-1.677977 3.4756,-2.105951 0.84643,-0.427974 1.50261,-0.690445 4.34898,0.816474 2.84637,1.506919 8.00297,4.757819 14.60245,8.728689 6.59948,3.97087 14.65373,8.669181 18.62506,11.073548 3.97133,2.404367 3.85947,2.516229 2.95718,3.136568 -0.9023,0.620338 -2.56518,1.728924 -4.01017,2.712763 -1.44499,0.983839 -2.65414,1.830903 -3.60618,2.89448 -0.95205,1.063576 -1.64167,2.339013 -2.43466,3.705178 -0.79299,1.366164 -1.68702,2.818962 -2.13481,4.777567 -0.4478,1.958604 -0.4478,4.417513 -0.50369,6.151479 -0.0559,1.733965 -0.1677,2.740284 -6.94239,-0.84301 -6.77468,-3.583293 -20.1831,-11.740075 -27.00668,-16.606435 z"
      id="path930"
      inkscape:connector-curvature="0"
      inkscape:path-effect="#path-effect932"
      inkscape:original-d="m 102.45598,69.912995 c -0.22271,-1.567022 -0.44643,-3.133044 -0.67115,-4.698066 0.4482,-1.901577 0.89587,-3.804195 1.34231,-5.704793 1.34247,-2.348587 2.6856,-4.699066 4.02691,-7.047098 1.56623,-1.230825 3.13304,-2.685609 4.69806,-4.026914 1.23061,-0.671693 2.4619,-1.343304 3.69134,-2.013456 0.448,-0.224501 1.11959,-0.448435 1.67788,-0.671152 5.1354,3.235902 10.292,6.486804 15.4365,9.731707 8.05441,4.696824 16.10866,9.39513 24.16148,14.094196 -0.11085,0.110854 -0.22271,0.222717 -0.33557,0.335576 -1.69188,1.127587 -3.35476,2.236174 -5.03365,3.355761 -1.21108,0.848119 -2.42023,1.695181 -3.63375,2.545609 -0.69007,1.27712 -1.37969,2.552558 -2.07104,3.830337 -0.89471,1.454528 -1.78874,2.907326 -2.68461,4.362489 0.001,2.461874 0.001,4.920783 0,7.382674 -0.1109,1.006138 -0.22271,2.012457 -0.33557,3.020185 -13.43668,-8.175588 -26.84509,-16.33237 -40.26914,-24.497055 z"
      sodipodi:nodetypes="ccccccccccccccccc"
    />
    <path
      style="fill:url(#linearGradient2552);fill-opacity:1.0;fill-rule:evenodd;stroke:#000000;stroke-width:1.70000005;stroke-linecap:butt;stroke-linejoin:miter;stroke-miterlimit:4;stroke-dasharray:none;stroke-opacity:1"
      d="m 155.08561,100.73008 c -1.06243,-0.27947 -4.02669,-1.957354 -5.56495,-3.859688 -1.53825,-1.902335 -1.65009,-4.027309 -1.25858,-6.543607 0.39152,-2.516299 1.28679,-5.425919 2.46125,-7.830449 1.17445,-2.40453 2.62921,-4.306911 4.20834,-5.736672 1.57914,-1.429761 3.45485,-2.484847 4.85305,-3.069877 1.39821,-0.585029 2.40494,-0.748842 4.04675,0.06145 1.64181,0.810297 3.91969,2.594418 4.53519,3.319567 0.61549,0.725149 -0.43201,0.3912 -1.43115,0.307979 -0.99914,-0.08322 -1.94937,0.08447 -2.95671,0.448132 -1.00734,0.363664 -2.06872,0.922284 -3.13206,1.705689 -1.06334,0.783405 -2.1248,1.789 -3.02018,2.880091 -0.89537,1.091091 -1.62175,2.264474 -2.15341,3.383577 -0.53167,1.119103 -0.86692,2.180704 -1.20271,3.327955 -0.33579,1.14725 -0.67099,2.376308 -0.783,3.523521 -0.11202,1.147213 -2.6e-4,2.208848 0.16758,3.216052 0.16784,1.007204 0.39137,1.957211 0.92305,2.992612 0.53167,1.035402 1.36998,2.153134 0.30754,1.873664 z"
      id="path934"
      inkscape:connector-curvature="0"
      inkscape:path-effect="#path-effect936"
      inkscape:original-d="m 156.98711,102.1283 c -2.96326,-1.67888 -5.92752,-3.356759 -8.89278,-5.033641 -0.11087,-2.126657 -0.22271,-4.251631 -0.33557,-6.375946 0.89547,-2.908033 1.79074,-5.817652 2.68461,-8.724979 1.45456,-1.901816 2.90932,-3.804195 4.36248,-5.704793 1.6779,-1.007139 3.58048,-2.014457 5.36922,-3.020185 1.00773,-0.164813 2.01446,-0.328627 3.02019,-0.49144 2.27888,1.783118 4.55677,3.567236 6.83365,5.352354 -1.04638,-0.33491 -2.09388,-0.668859 -3.14232,-1.001789 -0.95036,0.166887 -1.90059,0.334576 -2.85239,0.503364 -1.06294,0.558965 -2.12432,1.117587 -3.18798,1.677881 -1.06285,1.00686 -2.12431,2.012456 -3.18797,3.020185 -0.72678,1.17465 -1.45316,2.348032 -2.18124,3.523549 -0.33491,1.062716 -0.67016,2.124315 -1.00673,3.187973 -0.33496,1.230831 -0.67015,2.459891 -1.00673,3.691337 0.11297,1.06268 0.22472,2.124315 0.33558,3.187973 0.2249,0.95059 0.44843,1.900597 0.67115,2.852396 0.84058,1.118441 1.67889,2.236171 2.51683,3.355761 z"
      sodipodi:nodetypes="cccccccc"
    />
    <ellipse
      style="opacity:1;fill:none;fill-opacity:1;fill-rule:evenodd;stroke:#000000;stroke-width:1.70569742;stroke-linecap:butt;stroke-linejoin:round;stroke-miterlimit:4;stroke-dasharray:none;stroke-dashoffset:0;stroke-opacity:1;paint-order:normal"
      id="path938"
      transform="matrix(0.96902892,0.24694726,0.35702959,-0.93409308,0,0)"
      cx="186.01257"
      cy="-47.157784"
      rx="8.7525406"
      ry="13.45126"
    />
    <path
      style="display:inline;fill:url(#linearGradient2512);fill-opacity:1;fill-rule:evenodd;stroke:#000000;stroke-width:1.70000005;stroke-linecap:butt;stroke-linejoin:miter;stroke-miterlimit:4;stroke-dasharray:none;stroke-opacity:1"
      d="m 98.23754,137.7059 c -0.791335,-1.26605 -1.107721,-3.40165 -0.949438,-5.69513 0.158283,-2.29348 0.7913,-4.74642 1.740451,-6.72341 0.949151,-1.97698 2.215297,-3.48053 3.322347,-4.70614 1.10705,-1.22561 2.21507,-2.33364 3.16389,-3.1242 0.94881,-0.79056 1.81971,-1.34477 2.72869,-1.77941 0.90899,-0.43465 1.85941,-0.75145 2.64993,-0.94902 0.79052,-0.19756 1.42408,-0.27675 1.89832,-0.31623 0.47425,-0.0395 0.79119,-0.0395 1.14592,0.27577 0.35472,0.31525 0.75145,0.95001 0.67289,1.46395 -0.0786,0.51394 -0.632,0.90925 -1.42399,1.26573 -0.79199,0.35648 -1.81812,0.67222 -2.78745,1.36785 -0.96932,0.69563 -1.79932,1.67653 -2.59066,2.62614 -0.79135,0.9496 -1.50247,1.81875 -2.17529,2.80809 -0.67281,0.98935 -1.30479,2.09531 -1.84516,3.2087 -0.54037,1.11339 -1.04174,2.36682 -1.31882,3.47475 -0.27707,1.10793 -0.35609,2.13514 -0.43524,3.40147 -0.0791,1.26632 -0.15817,2.76758 -0.23721,3.71683 -0.079,0.94925 -0.15807,1.34444 -0.83204,1.34453 -0.67396,10e-5 -1.935805,-0.39422 -2.72714,-1.66027 z"
      id="path968"
      inkscape:connector-curvature="0"
      inkscape:path-effect="#path-effect970"
      inkscape:original-d="m 97.762712,138.57627 c -0.315384,-2.13659 -0.631769,-4.27219 -0.949153,-6.40678 0.633522,-2.45202 1.266537,-4.90496 1.898305,-7.35593 1.265928,-1.50311 2.532076,-3.00665 3.796616,-4.50848 0.94947,-0.94947 2.05749,-2.0575 3.08474,-3.08474 0.87021,-0.55414 1.74111,-1.10835 2.61017,-1.66102 0.94888,-0.31696 1.8993,-0.63377 2.84746,-0.94915 0.63297,-0.08 1.26653,-0.1592 1.8983,-0.23729 0.31683,-10e-4 0.63377,-10e-4 0.94916,0 0.39523,0.62977 0.79196,1.26453 1.18644,1.8983 -0.55291,0.39465 -1.10635,0.78996 -1.66102,1.18644 -1.02936,0.31604 -2.0555,0.63177 -3.08475,0.94916 -0.87006,1.10763 -1.73911,2.05549 -2.61017,3.08474 -0.71161,0.86997 -1.42273,1.73912 -2.13559,2.61017 -0.63256,1.10773 -1.26454,2.21369 -1.8983,3.32204 -0.47409,1.10753 -0.94816,2.37188 -1.42373,3.55932 -0.0782,1.02829 -0.1572,2.0555 -0.23729,3.08474 -0.0782,1.50339 -0.15719,3.00465 -0.23729,4.50848 -0.0782,0.39476 -0.15719,0.78996 -0.23729,1.18644 -1.26823,-0.39763 -2.530071,-0.79196 -3.796608,-1.18644 z"
    />
    <path
      style="display:inline;fill:none;fill-rule:evenodd;stroke:#000000;stroke-width:1.70000005;stroke-linecap:butt;stroke-linejoin:miter;stroke-miterlimit:4;stroke-dasharray:none;stroke-opacity:1"
      d="m 119.81859,120.23558 c -1.65685,-1.16314 -3.31389,-2.32641 -4.97113,-3.48982"
      id="path972"
      inkscape:connector-curvature="0"
      inkscape:path-effect="#path-effect974"
      inkscape:original-d="m 119.81859,120.23558 c -1.65605,-1.16427 -3.31309,-2.32755 -4.97113,-3.48982"
      sodipodi:nodetypes="cc"
    />
    <path
      style="display:inline;fill:url(#linearGradient2504);fill-opacity:1;fill-rule:evenodd;stroke:#000000;stroke-width:1.70000005;stroke-linecap:butt;stroke-linejoin:miter;stroke-miterlimit:4;stroke-dasharray:none;stroke-opacity:1"
      d="m 105.43535,140.4339 c 0.23701,-1.305 0.31611,-3.12421 0.61613,-4.51708 0.30003,-1.39287 0.88702,-2.48298 1.58001,-3.82228 0.693,-1.3393 1.52728,-2.99345 2.99078,-4.73342 1.4635,-1.73998 3.59374,-3.60027 5.47661,-4.84753 1.88288,-1.24727 3.65374,-1.97171 4.72137,-2.36703 1.06763,-0.39532 1.46339,-0.47447 2.37048,-0.0801 0.90709,0.39441 2.33498,1.26701 7.23811,4.15353 4.90314,2.88652 13.28898,7.79145 17.38255,10.3417 4.09357,2.55025 3.97492,2.66891 3.49775,3.30511 -0.47717,0.6362 -1.26313,1.73654 -2.01498,2.92361 -0.75185,1.18706 -1.46299,2.4513 -1.97741,3.59867 -0.51442,1.14737 -0.83051,2.17465 -1.22615,3.1639 -0.39564,0.98925 -0.86966,1.9373 -1.25791,3.16579 -0.38825,1.22848 -0.71947,2.88456 -1.03596,4.46705 -0.3165,1.5825 -0.63266,3.16327 -0.9491,4.50828 -0.31644,1.34502 -0.6326,2.45156 -1.93879,2.61002 -1.30619,0.15846 -3.59751,-0.63165 -9.84754,-3.95444 -6.25003,-3.32279 -16.45081,-9.1744 -21.35462,-12.49713 -4.90381,-3.32274 -4.50834,-4.11368 -4.27133,-5.41869 z"
      id="path980"
      inkscape:connector-curvature="0"
      inkscape:path-effect="#path-effect982"
      inkscape:original-d="m 105.59322,140.94915 c 0.0801,-1.82021 0.15919,-3.63942 0.23729,-5.45763 0.55435,-0.94961 1.10834,-2.05749 1.66102,-3.08474 0.83335,-1.65134 1.66764,-3.30549 2.49995,-4.95673 2.09423,-1.82898 4.22447,-3.68927 6.27971,-5.48395 1.73803,-0.63265 3.48122,-1.42473 5.22034,-2.13559 0.3962,-0.08 0.79196,-0.15919 1.18644,-0.23729 1.42057,0.86652 2.84846,1.73911 4.27118,2.61017 8.38352,4.90198 16.76936,9.80691 25.15254,14.71186 -0.15718,0.23628 -0.31538,0.31539 -0.47457,0.47458 -0.79496,1.11334 -1.58092,2.21369 -2.37288,3.32203 -0.7116,1.26584 -1.42273,2.53008 -2.1356,3.79661 -0.31568,1.02821 -0.63176,2.0555 -0.94915,3.08475 -0.47413,0.94925 -0.94815,1.8973 -1.42373,2.84746 -0.31578,1.50372 -0.63177,3.16284 -0.94915,4.74576 -0.31561,1.58207 -0.63177,3.16284 -0.94915,4.74576 -0.31562,1.10715 -0.63177,2.21369 -0.94915,3.32203 -2.29525,-0.79281 -4.58657,-1.58292 -6.88136,-2.37288 -10.205,-5.8556 -20.40578,-11.70721 -30.61017,-17.55932 0.39649,-0.79198 0.79196,-1.58292 1.18644,-2.37288 z"
      sodipodi:nodetypes="cccccccccccccccccccc"
    />
    <path
      style="display:inline;fill:none;fill-rule:evenodd;stroke:#000000;stroke-width:1.70000005;stroke-linecap:butt;stroke-linejoin:miter;stroke-miterlimit:4;stroke-dasharray:none;stroke-opacity:1"
      d="m 105.59322,140.94915 c -0.0528,-0.17239 -0.10544,-0.34416 -0.79862,-0.74402 -0.69319,-0.39986 -2.02756,-1.02866 -3.36235,-1.65765"
      id="path976"
      inkscape:connector-curvature="0"
      inkscape:path-effect="#path-effect978"
      inkscape:original-d="m 105.59322,140.94915 c -0.0516,-0.17276 -0.10425,-0.34453 -0.15787,-0.51529 -1.33337,-0.62979 -2.66774,-1.25859 -4.0031,-1.88638"
      sodipodi:nodetypes="ccc"
    />
    <path
      style="fill:none;fill-rule:evenodd;stroke:#000000;stroke-width:1.70000005;stroke-linecap:butt;stroke-linejoin:miter;stroke-miterlimit:4;stroke-dasharray:none;stroke-opacity:1"
      d="m 155.14143,70.751935 c 1.56631,0.950972 3.13233,1.901769 4.69807,2.852397"
      id="path988"
      inkscape:connector-curvature="0"
      inkscape:path-effect="#path-effect990"
      inkscape:original-d="m 155.14143,70.751935 c 1.56702,0.949799 3.13304,1.900598 4.69807,2.852397"
    />
    <path
      style="fill:none;fill-rule:evenodd;stroke:#000000;stroke-width:1.70000005;stroke-linecap:butt;stroke-linejoin:miter;stroke-miterlimit:4;stroke-dasharray:none;stroke-opacity:1"
      d="m 143.06069,90.383137 c 1.53976,1.099826 3.13224,2.237311 4.69807,3.355761"
      id="path992"
      inkscape:connector-curvature="0"
      inkscape:path-effect="#path-effect994"
      inkscape:original-d="m 143.06069,90.383137 c 1.56702,1.061658 3.13305,2.236174 4.69807,3.355761"
    />
    <path
      style="fill:none;fill-rule:evenodd;stroke:#000000;stroke-width:1.70000005;stroke-linecap:butt;stroke-linejoin:miter;stroke-miterlimit:4;stroke-dasharray:none;stroke-opacity:1"
      d="m 156.84746,188.88135 c -3.01156,-1.46508 -5.8527,-2.84725 -8.06779,-4.58774 -2.2151,-1.74049 -3.71765,-3.79661 -4.78544,-6.40695 -1.06778,-2.61033 -1.7006,-5.77444 -1.97734,-8.34495 -0.27675,-2.57052 -0.19764,-4.5484 0.19617,-7.2686 0.3938,-2.72019 1.10921,-6.21777 2.17691,-9.65791 1.06769,-3.44014 2.49189,-6.8424 4.46904,-10.08473 1.97714,-3.24233 4.50911,-6.32817 7.07936,-9.01695 2.57024,-2.68878 5.18133,-4.98338 7.63292,-6.68354 2.45158,-1.70017 4.74629,-2.80796 6.68509,-3.5123 1.9388,-0.70434 3.67697,-1.03541 5.65349,-1.15396 1.97651,-0.11854 4.27188,-0.0394 5.96946,-0.0392 1.69758,1.6e-4 2.81101,-0.0794 4.43151,-0.43514 1.6205,-0.35576 3.75815,-0.98914 5.85363,-1.81949 2.09547,-0.83034 4.15311,-1.85916 6.44614,-3.20339 2.29303,-1.34423 4.82558,-3.00622 7.43507,-5.10179 2.60949,-2.09557 5.29998,-4.6278 8.10728,-7.5933 2.80729,-2.9655 5.73497,-6.367931 8.34487,-8.977714 2.60989,-2.609783 4.9044,-4.429565 6.64426,-5.734409 1.73985,-1.304844 2.92686,-2.096184 4.38932,-2.847112 1.46246,-0.750929 3.20426,-1.463484 4.74612,-1.898277 1.54185,-0.434792 2.88741,-0.593094 4.27183,-0.5596 1.38442,0.03349 2.96558,0.28315 4.19626,0.58622 1.23068,0.303071 2.32837,0.725255 3.5934,1.357785 1.26504,0.63253 2.76864,1.503037 4.38968,3.400797 1.62104,1.89776 3.36151,4.824927 5.1018,7.751778"
      id="path996"
      inkscape:connector-curvature="0"
      inkscape:path-effect="#path-effect998"
      inkscape:original-d="m 156.84746,188.88135 c -3.01098,-1.46628 -5.85211,-2.84846 -8.77966,-4.27118 -1.5021,-2.05787 -3.00465,-4.114 -4.50848,-6.16949 -0.63171,-3.16458 -1.26453,-6.32869 -1.8983,-9.49153 0.0801,-1.97792 0.15919,-3.9558 0.23729,-5.9322 0.63343,-3.4794 1.42472,-6.96146 2.13559,-10.44068 1.42425,-3.401 2.84846,-6.80326 4.27118,-10.20339 2.53118,-3.08465 5.06315,-6.17049 7.59323,-9.25424 2.61024,-2.29397 5.22133,-4.58857 7.8305,-6.88135 2.29386,-1.1079 4.58857,-2.21569 6.88136,-3.32204 1.58209,-0.31722 3.32303,-0.63377 4.98305,-0.94915 2.2932,0.078 4.58857,0.15719 6.88136,0.23729 1.10788,-0.001 2.21569,-0.15919 3.32203,-0.23729 2.13454,-0.63316 4.27219,-1.26654 6.40678,-1.89831 2.05635,-1.02867 4.11399,-2.05749 6.16949,-3.08474 2.5306,-1.66105 5.06315,-3.32304 7.59322,-4.98305 2.68904,-2.53092 5.37953,-5.06315 8.0678,-7.59322 2.92643,-3.40083 5.85411,-6.80326 8.77966,-10.20339 2.29406,-1.819637 4.58857,-3.639418 6.88136,-5.457627 1.18687,-0.791581 2.37388,-1.582921 3.55932,-2.372881 1.73942,-0.712172 3.48122,-1.424729 5.22034,-2.135594 1.3447,-0.159082 2.69026,-0.317384 4.03389,-0.474576 1.42357,0.236094 3.00665,0.473576 4.50848,0.711865 0.94963,0.394264 2.0575,0.78996 3.08475,1.18644 1.50304,0.868603 3.00664,1.739113 4.50847,2.61017 1.74075,2.924941 3.48122,5.85211 5.22033,8.779661"
      sodipodi:nodetypes="cccccccccccccccccccccccccc"
    />
    <path
      style="fill:none;fill-rule:evenodd;stroke:#000000;stroke-width:1.70000005;stroke-linecap:butt;stroke-linejoin:miter;stroke-miterlimit:4;stroke-dasharray:none;stroke-opacity:1"
      d="m 161.04048,190.02822 c -1.26574,-0.0394 -2.61038,-0.35574 -4.15349,-1.14706 -1.54311,-0.79132 -3.28229,-2.05617 -4.66671,-3.59887 -1.38441,-1.5427 -2.41256,-3.36172 -3.20237,-5.92587 -0.78982,-2.56415 -1.34573,-5.89961 -1.43644,-8.78825 -0.0907,-2.88864 0.3283,-5.65405 0.84233,-8.38227 0.51404,-2.72822 1.14708,-5.57689 2.19917,-8.51044 1.05208,-2.93354 2.58665,-6.08344 4.36603,-9.04896 1.77938,-2.96551 3.83668,-5.81407 6.1301,-8.26552 2.29342,-2.45144 4.8255,-4.50876 7.37899,-6.23938 2.55349,-1.73063 5.19802,-3.1731 8.32138,-3.88464 3.12337,-0.71154 6.76345,-0.71154 9.6502,-0.79065 2.88675,-0.0791 5.02293,-0.23736 7.16896,-0.77874 2.14603,-0.54139 4.41908,-1.51555 7.30509,-3.09697 2.88602,-1.58142 6.44728,-3.79732 9.05712,-5.61639 2.60985,-1.81907 4.27142,-3.24327 6.52469,-5.45705 2.25327,-2.21377 5.10256,-5.22136 7.39603,-7.71256 2.29347,-2.4912 4.03417,-4.469273 5.81342,-6.248444 1.77924,-1.779171 3.59942,-3.361938 5.77388,-4.785134 2.17447,-1.423196 4.70703,-2.689476 6.88336,-3.511819 2.17634,-0.822342 4.15131,-1.233794 5.93013,-1.075595 1.77881,0.158198 3.44084,0.870496 4.86427,1.621767 1.42343,0.75127 2.61022,1.542463 3.79633,3.163407 1.18611,1.620945 2.37278,4.073399 3.00562,5.81335 0.63284,1.739951 0.71192,2.768018 0.83064,4.390478 0.11872,1.62246 0.27677,3.83517 0.0395,6.7228 -0.23729,2.88764 -0.8698,6.44548 -1.93765,9.80754 -1.06785,3.36205 -2.5702,6.52489 -3.99414,9.33327 -1.42394,2.80838 -2.76806,5.25942 -4.50856,7.71206 -1.74049,2.45263 -3.87505,4.90342 -5.7536,6.81869 -1.87855,1.91527 -3.42074,3.22613 -5.22407,4.44373 -1.80333,1.21761 -3.89146,2.34199 -5.71115,3.05415 -1.81968,0.71217 -3.40069,1.02837 -5.93311,1.18667 -2.53242,0.15831 -6.01011,0.15831 -9.37207,0.55376 -3.36196,0.39545 -6.60397,1.18618 -9.45186,2.25404 -2.84789,1.06786 -5.29898,2.412 -7.92478,4.17292 -2.6258,1.76092 -5.52118,4.01289 -7.55941,5.77298 -2.03822,1.7601 -3.34044,3.14369 -4.96263,4.72635 -1.62219,1.58265 -3.59808,3.40046 -5.41783,5.45748 -1.81976,2.05701 -3.4799,4.34959 -5.06209,6.20878 -1.58219,1.85918 -3.08427,3.28221 -4.74583,4.54825 -1.66157,1.26605 -3.47953,2.37264 -4.90806,3.11179 -1.42852,0.73915 -2.60535,1.15944 -3.75291,1.47605 -1.14756,0.31661 -2.33272,0.55364 -3.59847,0.5143 z"
      id="path1000"
      inkscape:connector-curvature="0"
      inkscape:path-effect="#path-effect1002"
      inkscape:original-d="m 161.11864,190.30508 c -1.34363,-0.31738 -2.68826,-0.63377 -4.03389,-0.94915 -1.74005,-1.26722 -3.47923,-2.53207 -5.22034,-3.79661 -1.02736,-1.8204 -2.0555,-3.63942 -3.08475,-5.45763 -0.47349,-3.32243 -1.10634,-6.64507 -1.66102,-9.9661 0.39639,-2.45238 0.79196,-5.22134 1.18644,-7.83051 0.6335,-2.84723 1.26654,-5.69591 1.89831,-8.54237 1.50321,-3.00542 3.00665,-6.17049 4.50847,-9.25424 2.0567,-2.84735 4.114,-5.69591 6.1695,-8.54237 2.53106,-2.05668 5.06314,-4.114 7.59322,-6.16949 2.61004,-1.34506 5.22134,-2.84846 7.8305,-4.27119 3.63776,-10e-4 7.27784,-10e-4 10.91526,0 2.13601,-0.15915 4.27219,-0.31738 6.40678,-0.47458 2.21458,-0.79156 4.43038,-1.8993 6.64407,-2.84745 3.55838,-2.21449 7.11964,-4.43038 10.67796,-6.64407 1.66147,-1.42426 3.32304,-2.84846 4.98305,-4.27119 2.84663,-3.00471 5.69592,-6.0123 8.54238,-9.01695 1.74052,-1.97772 3.48122,-3.955795 5.22034,-5.932197 1.81923,-1.582073 3.63941,-3.164841 5.45762,-4.745762 2.53059,-1.265796 5.06315,-2.532074 7.59322,-3.796611 1.81935,-0.396292 3.79761,-0.79196 5.69492,-1.18644 1.661,0.71043 3.32303,1.422729 4.98305,2.135593 1.18709,0.789731 2.37388,1.580921 3.55932,2.372881 1.18721,2.450501 2.37388,4.902955 3.55932,7.355933 0.0801,1.027424 0.1592,2.055493 0.23729,3.084743 0.15933,2.21567 0.31739,4.42838 0.47458,6.64407 -0.63203,3.5598 -1.26454,7.11764 -1.89831,10.67796 -1.5023,3.16386 -3.00465,6.32669 -4.50847,9.49153 -1.34415,2.45191 -2.68827,4.90295 -4.0339,7.35593 -2.13563,2.45217 -4.27019,4.90296 -6.40678,7.35593 -1.58161,1.42335 -3.16284,2.68827 -4.74576,4.0339 -2.0569,1.02795 -4.112,2.21369 -6.16949,3.32204 -1.58184,0.31556 -3.16285,0.63176 -4.74577,0.94915 -3.48176,-10e-4 -6.95945,-10e-4 -10.44068,0 -3.24286,0.79019 -6.48487,1.58092 -9.72881,2.37288 -2.45186,1.34412 -4.90295,2.68826 -7.35593,4.0339 -2.76871,2.21476 -5.69392,4.42838 -8.54237,6.64407 -1.18591,1.34415 -2.53008,2.68826 -3.79661,4.03389 -1.97792,1.81961 -3.95381,3.63742 -5.93221,5.45763 -1.66089,2.29399 -3.32103,4.58657 -4.98305,6.88136 -1.50256,1.42343 -3.00465,2.84645 -4.50847,4.27118 -1.81945,1.1071 -3.63742,2.21369 -5.45763,3.32204 -1.02791,0.39473 -2.21369,0.78996 -3.32203,1.18644 -1.18673,0.23654 -2.37189,0.47357 -3.55933,0.71186 z"
    />
    <path
      style="fill:none;fill-rule:evenodd;stroke:#000000;stroke-width:1.70000005;stroke-linecap:butt;stroke-linejoin:miter;stroke-miterlimit:4;stroke-dasharray:none;stroke-opacity:1"
      d="m 202.16949,147.83051 c 8.78081,-5.85388 17.56047,-11.70699 23.25522,-15.46393 5.69475,-3.75694 8.30526,-5.41817 9.92635,-6.80233 1.62109,-1.38416 2.25414,-2.49199 2.86955,-3.56896 0.61541,-1.07697 1.28289,-2.24506 1.8362,-3.43084 0.5533,-1.18578 1.02839,-2.45267 1.34456,-3.55952 0.31618,-1.10685 0.47453,-2.05692 0.51398,-2.92638 0.0395,-0.86946 -0.0397,-1.66136 -0.1583,-2.72839 -0.11856,-1.06703 -0.27693,-2.41318 -0.43502,-3.75694"
      id="path1004"
      inkscape:connector-curvature="0"
      inkscape:path-effect="#path-effect1006"
      inkscape:original-d="m 202.16949,147.83051 c 8.78066,-5.85411 17.56032,-11.70722 26.33898,-17.55933 2.61083,-1.66179 5.22134,-3.32303 7.83051,-4.98305 0.63349,-1.10785 1.26654,-2.21569 1.89831,-3.32203 0.63309,-1.02815 1.26653,-2.21569 1.8983,-3.32203 0.47507,-1.26519 0.95016,-2.53208 1.42373,-3.79662 0.15904,-0.94924 0.31739,-1.8993 0.47458,-2.84745 -0.078,-0.79102 -0.15719,-1.58292 -0.23729,-2.37288 -0.15701,-1.34412 -0.31538,-2.69027 -0.47458,-4.0339"
    />
    <path
      style="fill:none;fill-rule:evenodd;stroke:#000000;stroke-width:1.70000005;stroke-linecap:butt;stroke-linejoin:miter;stroke-miterlimit:4;stroke-dasharray:none;stroke-opacity:1"
      d="m 210.71246,148.1861 c 1.42431,-0.83085 4.27178,-2.49187 8.14645,-4.94322 3.87468,-2.45134 8.78066,-5.69563 12.41881,-8.02876 3.63815,-2.33313 6.0116,-3.7572 7.7118,-5.02263 1.7002,-1.26543 2.72895,-2.37332 3.71713,-3.59873 0.98818,-1.22541 1.93822,-2.5713 2.64961,-4.35004 0.71138,-1.77873 1.18636,-3.9953 1.49948,-6.0515 0.31312,-2.05621 0.47768,-4.1132 0.0428,-5.81294 -0.43485,-1.69973 -1.46367,-3.12423 -3.04483,-3.71743 -1.58117,-0.59321 -3.71704,-0.35589 -5.45744,0.0791 -1.7404,0.43497 -3.08436,1.06741 -8.30879,4.4712 -5.22444,3.40378 -14.31234,9.56775 -19.21652,13.1665 -4.90418,3.59876 -5.61595,4.62687 -6.40392,5.61252 -0.78798,0.98564 -1.80438,2.09458 -2.44221,3.18661 -0.63784,1.09203 -1.11054,2.50346 -1.32703,4.10313 -0.21649,1.59968 -0.20293,3.46375 -0.0887,4.93013 0.11419,1.46638 0.30014,2.38939 0.57722,3.26046 0.27708,0.87106 0.62986,1.61497 1.51868,2.22489 0.88883,0.60991 2.31256,1.08449 3.49904,1.2821 1.18648,0.19761 2.13603,0.11848 2.61007,0.079 0.47404,-0.0395 0.47405,-0.0395 1.89837,-0.87035 z"
      id="path1008"
      inkscape:connector-curvature="0"
      inkscape:path-effect="#path-effect1010"
      inkscape:original-d="m 209.28814,149.01695 c 2.84845,-1.66202 5.69591,-3.32304 8.54237,-4.98305 4.90292,-3.2426 9.80891,-6.48688 14.71186,-9.72882 2.37332,-1.42439 4.74677,-2.84846 7.11865,-4.27118 1.02874,-1.1078 2.05749,-2.21569 3.08474,-3.32204 0.94927,-1.34437 1.89931,-2.69026 2.84746,-4.0339 0.47517,-2.21381 0.95015,-4.43038 1.42373,-6.64406 0.15911,-1.89831 0.31738,-3.95581 0.47458,-5.93221 -1.0267,-1.42395 -2.0555,-2.84846 -3.08475,-4.27118 -2.13432,0.23625 -4.27019,0.47357 -6.40678,0.71186 -1.34432,0.63209 -2.68827,1.26454 -4.0339,1.89831 -9.10319,6.17401 -18.19109,12.33798 -27.28813,18.50847 -0.71096,1.02738 -1.42273,2.0555 -2.1356,3.08475 -0.86324,0.94193 -1.87964,2.05087 -2.73724,2.98646 -0.41752,1.24863 -0.89023,2.66006 -1.33737,3.99318 0.0146,1.86602 0.0281,3.73009 0.0407,5.59663 0.21596,1.066 0.40191,1.98901 0.60166,2.98645 0.35446,0.74435 0.70724,1.48826 1.05936,2.23389 1.42473,0.47357 2.84846,0.94815 4.27119,1.42372 0.94975,-0.0801 1.8993,-0.15919 2.84746,-0.23728 z"
      sodipodi:nodetypes="ccccccccccccccccccccc"
    />
  </g>
</svg>
