<svg id="Layer_1" data-name="Layer 1" xmlns="http://www.w3.org/2000/svg" viewBox="0 0 1421.3831 292.821"><defs><style>.cls-1{fill:#2c353a;}</style></defs><path class="cls-1" d="M109.4044,187.9131,98.1251,172.4219l37.2988-27.2236L97.5216,120.0811l11.4316-15.9434,49.7852,33.6914V152.418Z"/><path class="cls-1" d="M173.3224,201.6817H239.5v13.0849H173.3224Z"/><path class="cls-1" d="M265.6642,195.2139,296.3478,97.45H323.57l31.1348,97.7637H328.9864L323.57,175.21h-28.125l-4.9629,20.0039Zm43.3183-74.6006-8.875,35.7959h18.5Z"/><path class="cls-1" d="M370.1915,97.45h39.4063c27.0742,0,37.3008,13.8379,37.3008,32.6387,0,13.3857-5.4141,23.6133-16.0938,29.3291l19.1016,35.7959H421.33l-14.74-30.9824H394.4064v30.9824H370.1915ZM421.18,130.2393c0-8.7237-3.1582-13.086-14.4394-13.086h-12.334v27.6758h12.7851C415.6134,144.8291,421.18,141.0684,421.18,130.2393Z"/><path class="cls-1" d="M466.4454,97.45h32.0371c36.5489,0,48.73,17.2969,48.73,47.9805,0,23.1621-7.0683,49.7832-48.58,49.7832H466.4454ZM490.66,117.1533V175.21h9.1758c20.0039,0,21.5078-12.1826,21.5078-28.7266,0-19.1016-1.9551-29.33-23.6133-29.33Z"/><path class="cls-1" d="M618.8009,97.45h23.3125v64.2236c0,28.878-22.1094,35.044-39.4062,35.044-16.6954,0-38.0528-5.5645-38.0528-35.1943V97.45h24.2149v59.5606c0,16.2441,5.7168,20.0039,14.8906,20.0039,10.9805,0,15.041-4.9629,15.041-19.8536Z"/><path class="cls-1" d="M663.7657,175.21h25.2676V117.4541H663.7657V97.45h74.9024v20.0039H713.25V175.21h25.418v20.0039H663.7657Z"/><path class="cls-1" d="M781.5275,195.2139H758.6661V97.45h26.32l31.7364,58.6582V97.45h22.5605v97.7637H814.7677l-33.3906-62.5684Z"/><path class="cls-1" d="M938.2443,146.333c0,28.2754-10.377,50.3848-41.8125,50.3848-28.125,0-41.0606-16.9951-41.0606-49.332,0-29.48,11.2813-51.2891,40.91-51.2891C924.1075,96.0967,938.2443,109.0322,938.2443,146.333Zm-25.7188,0c0-23.915-1.9551-30.5332-16.2441-30.5332-12.9356,0-15.1914,7.6709-15.1914,31.586,0,19.7031,1.3535,29.6289,15.3418,29.6289C910.57,177.0147,912.5255,168.8936,912.5255,146.333Z"/><path class="cls-1" d="M984.1134,97.45v87.0859h52.49v10.6778H971.93V97.45Z"/><path class="cls-1" d="M1066.83,185.4385h26.6211V133.2471H1066.83v-9.7764h38.6543v9.7764h-.15v52.1914h27.3731v9.7754H1066.83Zm32.7891-94.0039a7.4465,7.4465,0,0,1,7.5195,7.5195,7.3224,7.3224,0,0,1-7.5195,7.3711,7.1973,7.1973,0,0,1-7.3711-7.3711A7.3218,7.3218,0,0,1,1099.6193,91.4346Z"/><path class="cls-1" d="M1179.0275,195.2139h-11.8828V123.4707h11.1308l.15,8.2725c8.1211-7.0694,18.1992-10.0772,25.7188-10.0772,11.4316,0,25.7187,4.6631,25.7187,24.9678v48.58h-11.73V150.9951c0-14.4394-6.4687-18.65-16.6953-18.65-7.3711,0-16.0937,3.6094-22.41,8.5733Z"/><path class="cls-1" d="M1289.4181,171.3c0,12.1836,5.7168,15.4922,14.74,15.4922,5.7149,0,12.334-2.5566,17.1465-5.7158l2.5566,9.9267a47.279,47.279,0,0,1-22.41,5.7149c-12.7852,0-23.9141-5.4141-23.9141-23.9141V133.3975h-16.9961v-8.4229l17.1465-.7519,1.5039-19.4024h10.2266v19.5528h30.9844v9.0244h-30.9844Z"/></svg>