<?xml version="1.0" encoding="UTF-8" standalone="no" ?>
<!-- Generator: Adobe Illustrator 21.1.0, SVG Export Plug-In . SVG Version: 6.00 Build 0)  -->
<svg
  xmlns:dc="http://purl.org/dc/elements/1.1/"
  xmlns:cc="http://creativecommons.org/ns#"
  xmlns:rdf="http://www.w3.org/1999/02/22-rdf-syntax-ns#"
  xmlns:svg="http://www.w3.org/2000/svg"
  xmlns="http://www.w3.org/2000/svg"
  xmlns:sodipodi="http://sodipodi.sourceforge.net/DTD/sodipodi-0.dtd"
  xmlns:inkscape="http://www.inkscape.org/namespaces/inkscape"
  version="1.1"
  id="Icons"
  x="0px"
  y="0px"
  viewBox="0 0 48 48"
  style="enable-background:new 0 0 48 48;"
  xml:space="preserve"
  sodipodi:docname="ribbon.svg"
  inkscape:version="0.92.2 (5c3e80d, 2017-08-06)"
><title id="title843">664-ribbon.svg</title><metadata id="metadata33"><rdf:RDF
    ><cc:Work rdf:about=""><dc:format>image/svg+xml</dc:format><dc:type
          rdf:resource="http://purl.org/dc/dcmitype/StillImage"
        /><dc:title>664-ribbon.svg</dc:title><cc:license
          rdf:resource="http://creativecommons.org/licenses/by/4.0/"
        /><dc:creator><cc:Agent><dc:title
            >Vincent Le Moign https://twitter.com/webalys</dc:title></cc:Agent></dc:creator><dc:source
        >https://commons.wikimedia.org/wiki/File:664-ribbon.svg http://emoji.streamlineicons.com/</dc:source></cc:Work><cc:License
        rdf:about="http://creativecommons.org/licenses/by/4.0/"
      ><cc:permits
          rdf:resource="http://creativecommons.org/ns#Reproduction"
        /><cc:permits
          rdf:resource="http://creativecommons.org/ns#Distribution"
        /><cc:requires
          rdf:resource="http://creativecommons.org/ns#Notice"
        /><cc:requires
          rdf:resource="http://creativecommons.org/ns#Attribution"
        /><cc:permits
          rdf:resource="http://creativecommons.org/ns#DerivativeWorks"
        /></cc:License></rdf:RDF></metadata><defs
    id="defs31"
  /><sodipodi:namedview
    pagecolor="#ffffff"
    bordercolor="#666666"
    borderopacity="1"
    objecttolerance="10"
    gridtolerance="10"
    guidetolerance="10"
    inkscape:pageopacity="0"
    inkscape:pageshadow="2"
    inkscape:window-width="640"
    inkscape:window-height="480"
    id="namedview29"
    showgrid="false"
    inkscape:zoom="5.3125"
    inkscape:cx="-8.0941176"
    inkscape:cy="24"
    inkscape:current-layer="Icons"
  /><style type="text/css" id="style2">
.st0 {
  opacity: 0.15;
  fill: #45413c;
}
.st1 {
  fill: #daedf7;
  stroke: #45413c;
  stroke-linecap: round;
  stroke-linejoin: round;
  stroke-miterlimit: 10;
}
.st2 {
  fill: #656769;
}
.st3 {
  fill: #87898c;
}
.st4 {
  fill: none;
  stroke: #45413c;
  stroke-linecap: round;
  stroke-linejoin: round;
  stroke-miterlimit: 10;
}
.st5 {
  fill: #daedf7;
}
.st6 {
  fill: #e8f4fa;
}
.st7 {
  fill: #ffffff;
}
.st8 {
  fill: #e0e0e0;
}
.st9 {
  fill: #00b8f0;
}
.st10 {
  fill: #ff6242;
  stroke: #45413c;
  stroke-linecap: round;
  stroke-linejoin: round;
  stroke-miterlimit: 10;
}
.st11 {
  fill: #ffe500;
  stroke: #45413c;
  stroke-linecap: round;
  stroke-linejoin: round;
  stroke-miterlimit: 10;
}
.st12 {
  fill: #00dba8;
  stroke: #45413c;
  stroke-linecap: round;
  stroke-linejoin: round;
  stroke-miterlimit: 10;
}
.st13 {
  fill: #bf8df2;
  stroke: #45413c;
  stroke-linecap: round;
  stroke-linejoin: round;
  stroke-miterlimit: 10;
}
.st14 {
  fill: #00b8f0;
  stroke: #45413c;
  stroke-linecap: round;
  stroke-linejoin: round;
  stroke-miterlimit: 10;
}
.st15 {
  fill: #87898c;
  stroke: #45413c;
  stroke-linecap: round;
  stroke-linejoin: round;
  stroke-miterlimit: 10;
}
.st16 {
  fill: #ff6242;
}
.st17 {
  fill: #e04122;
}
.st18 {
  fill: #9ceb60;
}
.st19 {
  fill: #6dd627;
}
.st20 {
  fill: #ff866e;
}
.st21 {
  fill: #f0f0f0;
}
.st22 {
  fill: #009fd9;
}
.st23 {
  fill: #656769;
  stroke: #45413c;
  stroke-linecap: round;
  stroke-linejoin: round;
  stroke-miterlimit: 10;
}
.st24 {
  fill: #adc4d9;
}
.st25 {
  fill: #8ca4b8;
}
.st26 {
  fill: #bdbec0;
}
.st27 {
  fill: #c0dceb;
  stroke: #45413c;
  stroke-linecap: round;
  stroke-linejoin: round;
  stroke-miterlimit: 10;
}
.st28 {
  fill: #4acfff;
}
.st29 {
  fill: #ffffff;
  stroke: #45413c;
  stroke-linecap: round;
  stroke-linejoin: round;
  stroke-miterlimit: 10;
}
.st30 {
  fill: #c0dceb;
}
.st31 {
  fill: #ffaa54;
  stroke: #45413c;
  stroke-linecap: round;
  stroke-linejoin: round;
  stroke-miterlimit: 10;
}
.st32 {
  fill: #ff8a14;
}
.st33 {
  fill: #ffaa54;
}
.st34 {
  fill: #6dd627;
  stroke: #45413c;
  stroke-linecap: round;
  stroke-linejoin: round;
  stroke-miterlimit: 10;
}
.st35 {
  fill: #debb7e;
}
.st36 {
  fill: #f0d5a8;
}
.st37 {
  fill: none;
  stroke: #45413c;
  stroke-miterlimit: 10;
}
.st38 {
  fill: #ffe500;
}
.st39 {
  fill: #fff48c;
}
.st40 {
  fill: #fff48c;
  stroke: #45413c;
  stroke-linecap: round;
  stroke-linejoin: round;
  stroke-miterlimit: 10;
}
.st41 {
  fill: #ff8a14;
  stroke: #45413c;
  stroke-linecap: round;
  stroke-linejoin: round;
  stroke-miterlimit: 10;
}
.st42 {
  fill: #525252;
}
.st43 {
  fill: #00f5bc;
}
.st44 {
  fill: #8cffe4;
}
.st45 {
  fill: #00dba8;
}
.st46 {
  fill: #ebcb00;
}
.st47 {
  fill: #ff866e;
  stroke: #45413c;
  stroke-linecap: round;
  stroke-linejoin: round;
  stroke-miterlimit: 10;
}
.st48 {
  fill: #ffcc99;
}
.st49 {
  fill: #45413c;
  stroke: #45413c;
  stroke-linecap: round;
  stroke-linejoin: round;
  stroke-miterlimit: 10;
}
.st50 {
  fill: #c8ffa1;
}
.st51 {
  fill: #bdbec0;
  stroke: #45413c;
  stroke-linecap: round;
  stroke-linejoin: round;
  stroke-miterlimit: 10;
}
.st52 {
  fill: #80ddff;
}
.st53 {
  fill: #4acfff;
  stroke: #45413c;
  stroke-linecap: round;
  stroke-linejoin: round;
  stroke-miterlimit: 10;
}
.st54 {
  fill: #fffce5;
}
.st55 {
  fill: #fffacf;
}
.st56 {
  fill: #627b8c;
}
.st57 {
  fill: #bf8256;
}
.st58 {
  fill: #dea47a;
}
.st59 {
  fill: #bf8256;
  stroke: #45413c;
  stroke-linecap: round;
  stroke-linejoin: round;
  stroke-miterlimit: 10;
}
.st60 {
  fill: #debb7e;
  stroke: #45413c;
  stroke-linecap: round;
  stroke-linejoin: round;
  stroke-miterlimit: 10;
}
.st61 {
  fill: #b89558;
}
.st62 {
  fill: #b8ecff;
}
.st63 {
  fill: #f7e5c6;
}
.st64 {
  fill: #fff5e3;
}
.st65 {
  fill: #915e3a;
}
.st66 {
  fill: #45413c;
  stroke: #45413c;
  stroke-miterlimit: 10;
}
.st67 {
  fill: #ffb0ca;
  stroke: #45413c;
  stroke-linecap: round;
  stroke-linejoin: round;
  stroke-miterlimit: 10;
}
.st68 {
  fill: #ff87af;
  stroke: #45413c;
  stroke-linecap: round;
  stroke-linejoin: round;
  stroke-miterlimit: 10;
}
.st69 {
  fill: #e5feff;
}
.st70 {
  fill: #a6fbff;
}
.st71 {
  fill: #ffb0ca;
}
.st72 {
  fill: #ff87af;
}
.st73 {
  fill: none;
  stroke: #45413c;
  stroke-linecap: round;
  stroke-miterlimit: 10;
}
.st74 {
  fill: #bf8df2;
}
.st75 {
  fill: #dabff5;
}
.st76 {
  fill: #4aeff7;
}
.st77 {
  fill: #00dfeb;
}
.st78 {
  fill: #ffcebf;
}
.st79 {
  fill: #ff6196;
  stroke: #45413c;
  stroke-linecap: round;
  stroke-linejoin: round;
  stroke-miterlimit: 10;
}
.st80 {
  fill: #00dfeb;
  stroke: #45413c;
  stroke-linecap: round;
  stroke-linejoin: round;
  stroke-miterlimit: 10;
}
.st81 {
  fill: #ff6196;
}
.st82 {
  fill: #ebcb00;
  stroke: #45413c;
  stroke-linecap: round;
  stroke-linejoin: round;
  stroke-miterlimit: 10;
}
.st83 {
  fill: #00f5bc;
  stroke: #45413c;
  stroke-linecap: round;
  stroke-linejoin: round;
  stroke-miterlimit: 10;
}
.st84 {
  fill: #4aeff7;
  stroke: #45413c;
  stroke-linecap: round;
  stroke-linejoin: round;
  stroke-miterlimit: 10;
}
.st85 {
  fill: #46b000;
}
.st86 {
  fill: #e0366f;
}
.st87 {
  fill: #e0366f;
  stroke: #45413c;
  stroke-linecap: round;
  stroke-linejoin: round;
  stroke-miterlimit: 10;
}
.st88 {
  fill: none;
  stroke: #e04122;
  stroke-linecap: round;
  stroke-linejoin: round;
  stroke-miterlimit: 10;
}
.st89 {
  fill: #ffa694;
}
.st90 {
  fill: #eddbff;
  stroke: #45413c;
  stroke-linecap: round;
  stroke-linejoin: round;
  stroke-miterlimit: 10;
}
.st91 {
  fill: none;
  stroke: #bf8df2;
  stroke-linecap: round;
  stroke-linejoin: round;
  stroke-miterlimit: 10;
}
.st92 {
  fill: #eddbff;
}
.st93 {
  fill: #dabff5;
  stroke: #45413c;
  stroke-linecap: round;
  stroke-linejoin: round;
  stroke-miterlimit: 10;
}
.st94 {
  fill: #e04122;
  stroke: #45413c;
  stroke-linecap: round;
  stroke-linejoin: round;
  stroke-miterlimit: 10;
}
.st95 {
  fill: #eb6d00;
}
.st96 {
  fill: none;
  stroke: #45413c;
  stroke-width: 1.0064;
  stroke-linecap: round;
  stroke-linejoin: round;
  stroke-miterlimit: 10;
}
.st97 {
  fill: #915e3a;
  stroke: #45413c;
  stroke-linecap: round;
  stroke-linejoin: round;
  stroke-miterlimit: 10;
}
.st98 {
  fill: #e0e0e0;
  stroke: #45413c;
  stroke-linecap: round;
  stroke-linejoin: round;
  stroke-miterlimit: 10;
}
.st99 {
  fill: #f0f0f0;
  stroke: #45413c;
  stroke-linecap: round;
  stroke-linejoin: round;
  stroke-miterlimit: 10;
}
.st100 {
  fill: #46b000;
  stroke: #45413c;
  stroke-linecap: round;
  stroke-linejoin: round;
  stroke-miterlimit: 10;
}
.st101 {
  fill: #4f4b45;
}
.st102 {
  fill: #ffdcd1;
}
.st103 {
  fill: #8ca4b8;
  stroke: #45413c;
  stroke-linecap: round;
  stroke-linejoin: round;
  stroke-miterlimit: 10;
}
.st104 {
  fill: #e8f4fa;
  stroke: #45413c;
  stroke-linecap: round;
  stroke-linejoin: round;
  stroke-miterlimit: 10;
}
.st105 {
  fill: none;
  stroke: #48cf3e;
  stroke-linecap: round;
  stroke-linejoin: round;
  stroke-miterlimit: 10;
}
.st106 {
  fill: none;
  stroke: #ff4064;
  stroke-linecap: round;
  stroke-linejoin: round;
  stroke-miterlimit: 10;
}
.st107 {
  fill: none;
  stroke: #ffb700;
  stroke-linecap: round;
  stroke-linejoin: round;
  stroke-miterlimit: 10;
}
.st108 {
  fill: none;
  stroke: #00aed9;
  stroke-linecap: round;
  stroke-linejoin: round;
  stroke-miterlimit: 10;
}
.st109 {
  fill: #c0dceb;
  stroke: #45413c;
  stroke-miterlimit: 10;
}
.st110 {
  fill: #525252;
  stroke: #45413c;
  stroke-linecap: round;
  stroke-linejoin: round;
  stroke-miterlimit: 10;
}
.st111 {
  fill: #fff5e3;
  stroke: #45413c;
  stroke-linecap: round;
  stroke-linejoin: round;
  stroke-miterlimit: 10;
}
.st112 {
  fill: #ffffff;
  stroke: #45413c;
  stroke-linejoin: round;
  stroke-miterlimit: 10;
}
.st113 {
  fill: #f0c2a1;
}
.st114 {
  fill: #dea47a;
  stroke: #45413c;
  stroke-linecap: round;
  stroke-linejoin: round;
  stroke-miterlimit: 10;
}
.st115 {
  fill: #f0c2a1;
  stroke: #45413c;
  stroke-linecap: round;
  stroke-linejoin: round;
  stroke-miterlimit: 10;
}
.st116 {
  fill: #fffef2;
}
.st117 {
  fill: #9ceb60;
  stroke: #45413c;
  stroke-linecap: round;
  stroke-linejoin: round;
  stroke-miterlimit: 10;
}
.st118 {
  fill: #9f5ae5;
  stroke: #45413c;
  stroke-linecap: round;
  stroke-linejoin: round;
  stroke-miterlimit: 10;
}
.st119 {
  fill: #627b8c;
  stroke: #45413c;
  stroke-linecap: round;
  stroke-linejoin: round;
  stroke-miterlimit: 10;
}
.st120 {
  fill: #fffacf;
  stroke: #45413c;
  stroke-linecap: round;
  stroke-linejoin: round;
  stroke-miterlimit: 10;
}
  </style><g id="g26"><ellipse
      id="XMLID_16341_"
      class="st0"
      cx="24"
      cy="45.5"
      rx="13.5"
      ry="1.5"
    /><path
      id="XMLID_16340_"
      class="st81"
      d="M17.9,25.5c0,0-7.9,0.6-11.3,11c-0.4,1.2,0.8,2.2,1.7,1.5c1.3-1,2.6-1.5,3.9-1.5   c0.3,2.6,1.1,5,2.2,7.2c0.5,1,1.8,0.8,2.1-0.3C18,35.7,24,29.3,24,29.3L17.9,25.5z"
    /><path
      id="XMLID_16339_"
      class="st86"
      d="M17.9,25.5c0,0-1.6,0.1-3.7,1.2c1.4,2.7,4.2,4.7,7.6,5.3c1.3-1.7,2.2-2.8,2.2-2.8   L17.9,25.5z"
    /><path
      id="XMLID_16338_"
      class="st4"
      d="M17.9,25.5c0,0-7.9,0.6-11.3,11c-0.4,1.2,0.8,2.2,1.7,1.5c1.3-1,2.6-1.5,3.9-1.5   c0.3,2.6,1.1,5,2.2,7.2c0.5,1,1.8,0.8,2.1-0.3C18,35.7,24,29.3,24,29.3L17.9,25.5z"
    /><path
      id="XMLID_16337_"
      class="st81"
      d="M30.1,25.5c0,0,7.9,0.6,11.3,11c0.4,1.2-0.8,2.2-1.7,1.5c-1.3-1-2.6-1.5-3.9-1.5   c-0.3,2.6-1.1,5-2.2,7.2c-0.5,1-1.8,0.8-2.1-0.3C30,35.7,24,29.3,24,29.3L30.1,25.5z"
    /><path
      id="XMLID_16336_"
      class="st86"
      d="M30.1,25.5c0,0,1.6,0.1,3.7,1.2c-1.4,2.7-4.2,4.7-7.6,5.3C25,30.4,24,29.3,24,29.3   L30.1,25.5z"
    /><path
      id="XMLID_16335_"
      class="st4"
      d="M30.1,25.5c0,0,7.9,0.6,11.3,11c0.4,1.2-0.8,2.2-1.7,1.5c-1.3-1-2.6-1.5-3.9-1.5   c-0.3,2.6-1.1,5-2.2,7.2c-0.5,1-1.8,0.8-2.1-0.3C30,35.7,24,29.3,24,29.3L30.1,25.5z"
    /><path
      id="XMLID_16334_"
      class="st87"
      d="M1.5,20c-0.1,0.6,0,1.1,0.4,1.6c4.2,5.6,18.9,3.9,18.9,3.9l1.9-4.3L3.2,11.4L1.5,20z"
    /><path
      class="st81"
      d="M5.2,9.2c-1,0.3-1.8,1.1-2,2.1L1.5,20c0,0.2,0,0.4,0,0.7c7.1-5,19.3,4.8,19.3,4.8l1.9-4.3   C22.6,21.3,13.8,6.6,5.2,9.2z"
      id="path12"
    /><path
      id="XMLID_16333_"
      class="st72"
      d="M2.5,15c0.4-0.7,1.1-1.3,1.8-1.5c7.3-2.3,14.7,8.1,16.8,11.2l1.5-3.4c0,0-8.8-14.7-17.4-12   c-1,0.3-1.8,1.1-2,2.1L2.5,15z"
    /><path
      class="st4"
      d="M5.2,9.2c-1,0.3-1.8,1.1-2,2.1L1.5,20c0,0.2,0,0.4,0,0.7c7.1-5,19.3,4.8,19.3,4.8l1.9-4.3   C22.6,21.3,13.8,6.6,5.2,9.2z"
      id="path15"
    /><path
      id="XMLID_16332_"
      class="st87"
      d="M46.5,20c0.1,0.6,0,1.1-0.4,1.6c-4.2,5.6-18.9,3.9-18.9,3.9l-1.9-4.3l19.4-9.9L46.5,20z"
    /><path
      class="st81"
      d="M42.8,9.2c1,0.3,1.8,1.1,2,2.1l1.7,8.7c0,0.2,0,0.4,0,0.7c-7.1-5-19.3,4.8-19.3,4.8l-1.9-4.3   C25.4,21.3,34.2,6.6,42.8,9.2z"
      id="path18"
    /><path
      id="XMLID_16331_"
      class="st72"
      d="M45.5,15c-0.4-0.7-1.1-1.3-1.8-1.5c-7.3-2.3-14.7,8.1-16.8,11.2l-1.5-3.4   c0,0,8.8-14.7,17.4-12c1,0.3,1.8,1.1,2,2.1L45.5,15z"
    /><path
      class="st4"
      d="M42.8,9.2c1,0.3,1.8,1.1,2,2.1l1.7,8.7c0,0.2,0,0.4,0,0.7c-7.1-5-19.3,4.8-19.3,4.8l-1.9-4.3   C25.4,21.3,34.2,6.6,42.8,9.2z"
      id="path21"
    /><ellipse
      id="XMLID_16330_"
      class="st81"
      cx="24"
      cy="22.6"
      rx="8"
      ry="7.1"
    /><path
      id="XMLID_16329_"
      class="st72"
      d="M24,18.8c3.1,0,5.8,0.8,7.8,2.2c-0.8-3.1-4-5.5-7.8-5.5s-7,2.3-7.8,5.5   C18.2,19.6,20.9,18.8,24,18.8z"
    /><ellipse
      id="XMLID_16328_"
      class="st4"
      cx="24"
      cy="22.6"
      rx="8"
      ry="7.1"
    /></g></svg>
