<?xml version="1.0" encoding="UTF-8" standalone="no" ?>
<svg
  xmlns:dc="http://purl.org/dc/elements/1.1/"
  xmlns:cc="http://creativecommons.org/ns#"
  xmlns:rdf="http://www.w3.org/1999/02/22-rdf-syntax-ns#"
  xmlns:svg="http://www.w3.org/2000/svg"
  xmlns="http://www.w3.org/2000/svg"
  xmlns:sodipodi="http://sodipodi.sourceforge.net/DTD/sodipodi-0.dtd"
  xmlns:inkscape="http://www.inkscape.org/namespaces/inkscape"
  version="1.1"
  x="0px"
  y="0px"
  viewBox="0 0 50.4 50.4"
  enable-background="new 0 0 50.4 50.4"
  xml:space="preserve"
  id="svg18"
  sodipodi:docname="shell.svg"
  inkscape:version="0.92.2 (5c3e80d, 2017-08-06)"
><metadata id="metadata24"><rdf:RDF><cc:Work rdf:about=""><dc:format
        >image/svg+xml</dc:format><dc:type
          rdf:resource="http://purl.org/dc/dcmitype/StillImage"
        /><dc:title /><cc:license
          rdf:resource="http://creativecommons.org/publicdomain/zero/1.0/"
        /><dc:source
        >https://commons.wikimedia.org/wiki/File:Shell_(28788)_-_The_Noun_Project.svg</dc:source></cc:Work><cc:License
        rdf:about="http://creativecommons.org/publicdomain/zero/1.0/"
      ><cc:permits
          rdf:resource="http://creativecommons.org/ns#Reproduction"
        /><cc:permits
          rdf:resource="http://creativecommons.org/ns#Distribution"
        /><cc:permits
          rdf:resource="http://creativecommons.org/ns#DerivativeWorks"
        /></cc:License></rdf:RDF></metadata><defs
    id="defs22"
  /><sodipodi:namedview
    pagecolor="#ffffff"
    bordercolor="#666666"
    borderopacity="1"
    objecttolerance="10"
    gridtolerance="10"
    guidetolerance="10"
    inkscape:pageopacity="0"
    inkscape:pageshadow="2"
    inkscape:window-width="640"
    inkscape:window-height="480"
    id="namedview20"
    showgrid="false"
    inkscape:zoom="5.0595237"
    inkscape:cx="-8.4988238"
    inkscape:cy="25.200001"
    inkscape:current-layer="svg18"
  /><g id="g16"><path
      d="M20.37,11.503c-0.581,0.572-1.004,1.204-1.316,1.853c-0.036,0.082-0.081,0.165-0.111,0.245   c-0.013,0.031-0.023,0.059-0.035,0.088c-0.399,1.068-0.537,2.117-0.571,2.981c1.443-0.971,3.442-1.792,6.253-2.108   c1.965-0.223,5.735-0.102,7.333-0.037c-0.009-0.89-0.08-1.902-0.291-2.907c-0.179-0.84-0.547-1.688-0.82-2.244   C29.264,9.302,22.77,9.153,20.37,11.503z M23.167,12.678c-0.427,0-0.775-0.348-0.775-0.774c0-0.428,0.348-0.775,0.775-0.775   c0.428,0,0.775,0.348,0.775,0.775C23.942,12.33,23.595,12.678,23.167,12.678z M26.179,12.141c-0.428,0-0.774-0.348-0.774-0.775   c0-0.427,0.347-0.775,0.774-0.775c0.429,0,0.776,0.348,0.776,0.775C26.955,11.792,26.607,12.141,26.179,12.141z M29.14,12.086   c-0.428,0-0.774-0.348-0.774-0.774c0-0.427,0.347-0.775,0.774-0.775s0.775,0.348,0.775,0.775   C29.915,11.739,29.567,12.086,29.14,12.086z"
      id="path2"
    /><path
      d="M33.875,18.807l-1.615-2.977c-1.224-0.054-5.491-0.218-7.526,0.012c-4.789,0.542-6.978,2.549-7.985,4.257   c1.092-0.618,2.335-1.094,3.752-1.373C24.581,17.923,30.505,18.411,33.875,18.807z"
      id="path4"
    /><path
      d="M21.661,37.001c1.314-3.55,3.716-5.36,8.46-7.405c2.786-1.203,4.336-3.253,5.173-4.87c0.085-0.255,0.163-0.514,0.21-0.775   c0.207-1.146,0.038-2.811-0.07-3.641c-0.818-0.114-2.181-0.286-3.812-0.434c0.217,0.155,0.367,0.398,0.367,0.686   c0,0.476-0.384,0.86-0.859,0.86s-0.861-0.385-0.861-0.86c0-0.336,0.198-0.619,0.478-0.76c-0.959-0.078-1.981-0.139-3.027-0.176   c0.108,0.143,0.184,0.312,0.184,0.505c0,0.476-0.385,0.861-0.861,0.861s-0.862-0.385-0.862-0.861c0-0.207,0.083-0.388,0.204-0.536   c-1.083-0.012-2.159,0.012-3.182,0.087c0.106,0.143,0.181,0.311,0.181,0.502c0,0.476-0.385,0.86-0.861,0.86   c-0.476,0-0.86-0.384-0.86-0.86c0-0.125,0.031-0.243,0.079-0.351c-0.34,0.045-0.674,0.1-0.99,0.16   c-0.968,0.191-1.818,0.5-2.611,0.864c0.408,0.067,0.726,0.407,0.726,0.833c0,0.476-0.385,0.861-0.86,0.861s-0.86-0.385-0.86-0.861   c0-0.158,0.053-0.295,0.126-0.422c-1.192,0.695-2.119,1.622-2.807,2.73c0.078-0.024,0.156-0.048,0.242-0.048   c0.477,0,0.861,0.384,0.861,0.86c0,0.476-0.385,0.86-0.861,0.86c-0.4,0-0.721-0.279-0.817-0.648   c-0.298,0.684-0.496,1.438-0.625,2.233c-0.195,1.962,0.105,4.247,1.012,6.877c1.93,5.594,5.083,10.2,8.493,13.065   C21.3,44.792,20.087,41.249,21.661,37.001z"
      id="path6"
    /><path
      d="M28.984,1.449c-0.008-0.202-0.021-0.417-0.062-0.639c-0.072-0.39-0.275-0.794-0.275-0.794s-1.693-0.169-2.396,0.635   c-0.316,0.363-0.449,0.798-0.505,1.183C26.829,1.511,28.13,1.448,28.984,1.449z"
      id="path8"
    /><path
      d="M24.598,4.625c1.783-0.586,3.949-0.62,5.076-0.588C29.66,3.77,29.633,3.486,29.568,3.2   c-0.034-0.155-0.088-0.306-0.146-0.45c-1.407-0.045-3.536,0.109-4.201,0.759C24.881,3.843,24.7,4.24,24.598,4.625z"
      id="path10"
    /><path
      d="M29.809,5.341c-0.4-0.013-0.863-0.018-1.404,0.003C28.523,5.47,28.6,5.639,28.6,5.826c0,0.385-0.312,0.697-0.697,0.697   s-0.698-0.312-0.698-0.697c0-0.156,0.062-0.294,0.149-0.41c-0.585,0.055-1.171,0.144-1.729,0.276   c0.138,0.128,0.229,0.307,0.229,0.51c0,0.385-0.313,0.697-0.698,0.697s-0.697-0.312-0.697-0.697c0-0.049,0.018-0.091,0.028-0.136   c-0.374,0.163-0.714,0.348-0.958,0.586c-0.71,0.696-1.031,1.546-1.178,2.325c2.825-0.935,6.36-0.962,7.997-0.914   c-0.002-0.521-0.041-1.123-0.175-1.724C30.09,5.969,29.946,5.632,29.809,5.341z"
      id="path12"
    /><path
      d="M34.715,27.863c-0.986,1.099-2.31,2.153-4.083,2.918c-4.425,1.906-6.317,3.633-7.505,6.838   c-2.287,6.175,1.762,11.07,3.627,11.823c1.579,0.896,2.747,1.073,4.162,0.897c6.883-0.86,7.886-7.314,7.886-11.187   C38.802,33.636,36.007,29.486,34.715,27.863z M35.313,43.632c-0.926,2.722-4.204,4.844-6.753,3.57   c-2.083-1.039-4.163-3.98-2.55-8.665c1.419-4.121,7.52-5.735,7.52-5.735S37.228,38.027,35.313,43.632z"
      id="path14"
    /></g></svg>
