<?xml version="1.0" encoding="UTF-8" standalone="no" ?>
<svg
  xmlns:dc="http://purl.org/dc/elements/1.1/"
  xmlns:cc="http://creativecommons.org/ns#"
  xmlns:rdf="http://www.w3.org/1999/02/22-rdf-syntax-ns#"
  xmlns:svg="http://www.w3.org/2000/svg"
  xmlns="http://www.w3.org/2000/svg"
  xmlns:sodipodi="http://sodipodi.sourceforge.net/DTD/sodipodi-0.dtd"
  xmlns:inkscape="http://www.inkscape.org/namespaces/inkscape"
  viewBox="0 0 22 22"
  version="1.1"
  id="svg56"
  sodipodi:docname="toc.svg"
  inkscape:version="0.92.2 (5c3e80d, 2017-08-06)"
>
  <title id="title869">Antü Plasma Suite</title>
  <metadata id="metadata62">
    <rdf:RDF>
      <cc:Work rdf:about="">
        <dc:format>image/svg+xml</dc:format>
        <dc:type rdf:resource="http://purl.org/dc/dcmitype/StillImage" />
        <dc:title>Antü Plasma Suite</dc:title>
        <cc:license
          rdf:resource="http://creativecommons.org/licenses/by-sa/4.0/"
        />
        <dc:creator>
          <cc:Agent>
            <dc:title>Fabián Alexis</dc:title>
          </cc:Agent>
        </dc:creator>
        <dc:source
        >https://commons.wikimedia.org/wiki/File:Antu_insert-table-of-contents.svg</dc:source>
      </cc:Work>
      <cc:License rdf:about="http://creativecommons.org/licenses/by-sa/4.0/">
        <cc:permits rdf:resource="http://creativecommons.org/ns#Reproduction" />
        <cc:permits rdf:resource="http://creativecommons.org/ns#Distribution" />
        <cc:requires rdf:resource="http://creativecommons.org/ns#Notice" />
        <cc:requires rdf:resource="http://creativecommons.org/ns#Attribution" />
        <cc:permits
          rdf:resource="http://creativecommons.org/ns#DerivativeWorks"
        />
        <cc:requires rdf:resource="http://creativecommons.org/ns#ShareAlike" />
      </cc:License>
    </rdf:RDF>
  </metadata>
  <defs id="defs60" />
  <sodipodi:namedview
    pagecolor="#ffffff"
    bordercolor="#666666"
    borderopacity="1"
    objecttolerance="10"
    gridtolerance="10"
    guidetolerance="10"
    inkscape:pageopacity="0"
    inkscape:pageshadow="2"
    inkscape:window-width="640"
    inkscape:window-height="480"
    id="namedview58"
    showgrid="false"
    inkscape:zoom="11.590909"
    inkscape:cx="-3.7098039"
    inkscape:cy="11"
    inkscape:current-layer="svg56"
  />
  <g transform="translate(0-1030.36)" id="g54">
    <g fill="#1d99f3" id="g8">
      <path
        transform="translate(-1 1029.36)"
        d="m13 16v1h1v2h-1v1h1 1 1 4v-1h-1v-2h1v-1h-4-1-1-1m2 1h1v2h-1v-2m2 0h1v2h-1v-2"
        id="path2"
      />
      <path
        d="m16 1033.36v1h1v2h-1v1h1 1 1v-1h-1v-2h1v-1h-1-1-1"
        color="#000"
        id="path4"
      />
      <path
        d="m14 1039.36v1h1v2h-1v1h5v-1h-1v-2h1v-1h-5m2 1h1v2h-1v-2"
        id="path6"
      />
    </g>
    <g color="#000" id="g52">
      <path
        fill="#4d4d4d"
        stroke-width="1"
        d="m3 1045.36h7v1h-7z"
        id="path10"
      />
      <g fill="#1d99f3" id="g20">
        <path d="m10 1047.36h1v1h-1z" id="path12" />
        <g stroke-width="1" id="g18">
          <path d="m8 1047.36h1v1h-1z" id="path14" />
          <path d="m6 1047.36h1v1h-1z" id="path16" />
        </g>
      </g>
      <g fill="#4d4d4d" id="g26">
        <path d="m3 1039.36h8v1h-8z" id="path22" />
        <path d="m3 1033.36h10v1h-10z" id="path24" />
      </g>
      <g stroke-width="1" id="g50">
        <g fill="#1d99f3" id="g40">
          <path d="m14 1035.36h1v1h-1z" id="path28" />
          <path d="m12 1035.36h1v1h-1z" id="path30" />
          <path d="m10 1035.36h1v1h-1z" id="path32" />
          <path d="m12 1041.36h1v1h-1z" id="path34" />
          <path d="m10 1041.36h1v1h-1z" id="path36" />
          <path d="m8 1041.36h1v1h-1z" id="path38" />
        </g>
        <g fill="#4d4d4d" id="g48">
          <path d="m3 1035.36h6v1h-6z" id="path42" />
          <path d="m3 1041.36h4v1h-4z" id="path44" />
          <path d="m3 1047.36h2v1h-2z" id="path46" />
        </g>
      </g>
    </g>
  </g>
</svg>
