<?xml version="1.0" encoding="UTF-8" standalone="no" ?>
<svg
  xmlns:dc="http://purl.org/dc/elements/1.1/"
  xmlns:cc="http://creativecommons.org/ns#"
  xmlns:rdf="http://www.w3.org/1999/02/22-rdf-syntax-ns#"
  xmlns:svg="http://www.w3.org/2000/svg"
  xmlns="http://www.w3.org/2000/svg"
  xmlns:sodipodi="http://sodipodi.sourceforge.net/DTD/sodipodi-0.dtd"
  xmlns:inkscape="http://www.inkscape.org/namespaces/inkscape"
  version="1.1"
  width="160"
  height="160"
  id="YAML_Logo"
  data-name="YAML Logo"
  viewBox="0 0 512 470.647"
  sodipodi:docname="yaml.svg"
  inkscape:version="0.92.2 (5c3e80d, 2017-08-06)"
>
  <metadata id="metadata14">
    <rdf:RDF>
      <cc:Work rdf:about="">
        <dc:format>image/svg+xml</dc:format>
        <dc:type rdf:resource="http://purl.org/dc/dcmitype/StillImage" />
        <dc:title>YAML logo</dc:title>
        <cc:license
          rdf:resource="http://creativecommons.org/publicdomain/zero/1.0/"
        />
        <dc:source
        >https://commons.wikimedia.org/wiki/File:YAML_logo_in_SVG_format.svg</dc:source>
      </cc:Work>
      <cc:License rdf:about="http://creativecommons.org/publicdomain/zero/1.0/">
        <cc:permits rdf:resource="http://creativecommons.org/ns#Reproduction" />
        <cc:permits rdf:resource="http://creativecommons.org/ns#Distribution" />
        <cc:permits
          rdf:resource="http://creativecommons.org/ns#DerivativeWorks"
        />
      </cc:License>
    </rdf:RDF>
  </metadata>
  <sodipodi:namedview
    pagecolor="#ffffff"
    bordercolor="#666666"
    borderopacity="1"
    objecttolerance="10"
    gridtolerance="10"
    guidetolerance="10"
    inkscape:pageopacity="0"
    inkscape:pageshadow="2"
    inkscape:window-width="640"
    inkscape:window-height="480"
    id="namedview12"
    showgrid="false"
    inkscape:zoom="1.59375"
    inkscape:cx="-26.980392"
    inkscape:cy="80"
    inkscape:current-layer="YAML_Logo"
  />
  <title id="title-001">YAML logo</title>
  <defs id="defs5">
    <style id="style3">.cls-1{fill:#cb171e;}</style>
  </defs>
  <polygon
    id="L"
    points="512 422.735 395.638 422.735 395.638 250.125 347.442 250.125 347.442 469.647 512 469.647 512 422.737 512 422.735"
  />
  <polygon
    id="M"
    points="87.701 250.177 87.701 470.647 135.004 470.647 135.004 318.569 184.509 420.789 221.743 420.789 272.939 314.976 272.939 470.602 318.318 470.602 318.318 250.177 256.358 250.177 201.381 349.883 149.021 250.177 87.701 250.177 87.701 250.177"
  />
  <path
    id="A"
    class="cls-1"
    d="M330.294,195.39H228.433l-20.717,50.024H162.61L257.99,20.465h46.137l91.51,224.949h-48.2L330.293,195.39Zm-16.92-44.911-31.226-82.55-34.837,82.55h66.063Z"
    transform="translate(0 -19.939)"
  />
  <polygon
    id="Y"
    points="235.793 0 143.978 137.674 143.978 224.949 87.702 224.949 87.702 137.674 0 0 63.25 0 119.018 88.646 175.243 0 235.793 0 235.793 0"
  />
</svg>
